<svg width="198" height="37" viewBox="0 0 198 37" fill="none" xmlns="http://www.w3.org/2000/svg">
<path d="M18.05 36.6C14.7833 36.6 11.7667 35.8 9 34.2C6.23333 32.6 4.03333 30.4167 2.4 27.65C0.8 24.85 7.07805e-08 21.8167 7.07805e-08 18.55C7.07805e-08 15.2833 0.8 12.2667 2.4 9.5C4.03333 6.73333 6.23333 4.55 9 2.95C11.7667 1.35 14.7833 0.549997 18.05 0.549997C21.1167 0.549997 23.9833 1.28333 26.65 2.75V10.3H26.45C26.45 9 26.0833 7.65 25.35 6.25C24.6167 4.85 23.5833 3.65 22.25 2.65C20.9167 1.65 19.5167 1.15 18.05 1.15C15.7833 1.15 13.7 1.93333 11.8 3.5C9.9 5.03333 8.4 7.15 7.3 9.85C6.2 12.5167 5.65 15.4167 5.65 18.55C5.65 20.9167 5.96667 23.1833 6.6 25.35C7.26667 27.4833 8.15 29.3333 9.25 30.9C10.35 32.4667 11.6667 33.7167 13.2 34.65C14.7333 35.55 16.35 36 18.05 36C19.6833 36 21.2333 35.5667 22.7 34.7C24.2 33.8333 25.5167 32.6333 26.65 31.1V34.4C23.9833 35.8667 21.1167 36.6 18.05 36.6ZM41.0609 7.7C43.7609 7.7 46.1443 8.5 48.2109 10.1C50.3109 11.6667 51.3609 13.5833 51.3609 15.85V36H51.1609C50.8276 35.9333 49.2109 35.1 46.3109 33.5C45.2443 35.5667 43.4109 36.6 40.8109 36.6C36.6109 36.6 33.5443 35.6667 31.6109 33.8C29.7109 31.9333 28.7609 29.45 28.7609 26.35C28.7609 23.3833 29.7776 20.9333 31.8109 19C33.8443 17.0667 36.6943 16.1 40.3609 16.1C40.8276 16.1 41.3276 16.0833 41.8609 16.05C42.4276 15.9833 43.0609 15.8833 43.7609 15.75C44.4609 15.5833 45.0276 15.35 45.4609 15.05C45.9276 14.7167 46.1609 14.3167 46.1609 13.85C46.0276 12.6833 45.7443 11.7 45.3109 10.9C44.9109 10.0667 44.3443 9.43333 43.6109 9C42.9109 8.53333 42.0609 8.3 41.0609 8.3C39.5943 8.3 38.1943 8.8 36.8609 9.8C35.5276 10.8 34.4776 12 33.7109 13.4C32.9776 14.8 32.6109 16.15 32.6109 17.45H32.4109V9.9C35.1109 8.43333 37.9943 7.7 41.0609 7.7ZM46.3109 17.45V15.85C46.3109 15.45 46.2943 15.0667 46.2609 14.7C45.5943 15.9333 43.6276 16.55 40.3609 16.55C39.5609 16.55 38.7776 16.8167 38.0109 17.35C37.2776 17.85 36.6443 18.5333 36.1109 19.4C35.6109 20.2667 35.1943 21.3167 34.8609 22.55C34.5609 23.75 34.4109 25.0167 34.4109 26.35C34.4109 29.2167 34.9609 31.5833 36.0609 33.45C37.1943 35.2833 38.7776 36.2 40.8109 36.2C42.4776 36.2 43.8109 35.7 44.8109 34.7C45.8109 33.7 46.3109 32.55 46.3109 31.25V17.45ZM79.0934 23.95C79.0934 31.85 80.51 35.8 83.3434 35.8V36H74.0434V32.45C72.0767 35.2167 69.7934 36.6 67.1934 36.6C63.4934 36.6 60.4767 35.2167 58.1434 32.45C55.8434 29.6833 54.6934 26.2667 54.6934 22.2C54.6934 18.1 55.8434 14.6667 58.1434 11.9C60.4767 9.1 63.4934 7.7 67.1934 7.7C68.0267 7.7 68.8434 7.88333 69.6434 8.25C70.4767 8.58333 71.26 9.06667 71.9934 9.7C72.7267 10.3 73.41 11.0333 74.0434 11.9C74.0434 11 73.9934 10.2 73.8934 9.5C73.8267 8.76666 73.6934 8.03333 73.4934 7.3C73.3267 6.56667 73.0934 5.96667 72.7934 5.5C72.4934 5.03333 72.0934 4.65 71.5934 4.35C71.0934 4.05 70.51 3.9 69.8434 3.9V3.7C70.2434 3.7 70.9767 3.58333 72.0434 3.35C73.1434 3.08333 74.3434 2.75 75.6434 2.35C76.9434 1.95 78.0267 1.55 78.8934 1.15H79.0934V23.95ZM74.0434 31.2V13.2C74.0434 13.1667 74.0434 13.15 74.0434 13.15C74.0434 13.1167 74.0434 13.1 74.0434 13.1C73.4434 12.1333 72.76 11.3 71.9934 10.6C71.26 9.86667 70.4767 9.3 69.6434 8.9C68.8434 8.5 68.0267 8.3 67.1934 8.3C65.0267 8.3 63.3434 9.61667 62.1434 12.25C60.9434 14.85 60.3434 18.15 60.3434 22.15C60.3434 26.15 60.9434 29.4667 62.1434 32.1C63.3434 34.7 65.0267 36 67.1934 36C68.4267 36 69.6434 35.5833 70.8434 34.75C72.0767 33.8833 73.1434 32.7 74.0434 31.2ZM95.7484 7.7C98.4484 7.7 100.832 8.5 102.898 10.1C104.998 11.6667 106.048 13.5833 106.048 15.85V36H105.848C105.515 35.9333 103.898 35.1 100.998 33.5C99.9318 35.5667 98.0984 36.6 95.4984 36.6C91.2984 36.6 88.2318 35.6667 86.2984 33.8C84.3984 31.9333 83.4484 29.45 83.4484 26.35C83.4484 23.3833 84.4651 20.9333 86.4984 19C88.5318 17.0667 91.3818 16.1 95.0484 16.1C95.5151 16.1 96.0151 16.0833 96.5484 16.05C97.1151 15.9833 97.7484 15.8833 98.4484 15.75C99.1484 15.5833 99.7151 15.35 100.148 15.05C100.615 14.7167 100.848 14.3167 100.848 13.85C100.715 12.6833 100.432 11.7 99.9984 10.9C99.5984 10.0667 99.0318 9.43333 98.2984 9C97.5984 8.53333 96.7484 8.3 95.7484 8.3C94.2818 8.3 92.8818 8.8 91.5484 9.8C90.2151 10.8 89.1651 12 88.3984 13.4C87.6651 14.8 87.2984 16.15 87.2984 17.45H87.0984V9.9C89.7984 8.43333 92.6818 7.7 95.7484 7.7ZM100.998 17.45V15.85C100.998 15.45 100.982 15.0667 100.948 14.7C100.282 15.9333 98.3151 16.55 95.0484 16.55C94.2484 16.55 93.4651 16.8167 92.6984 17.35C91.9651 17.85 91.3318 18.5333 90.7984 19.4C90.2984 20.2667 89.8818 21.3167 89.5484 22.55C89.2484 23.75 89.0984 25.0167 89.0984 26.35C89.0984 29.2167 89.6484 31.5833 90.7484 33.45C91.8818 35.2833 93.4651 36.2 95.4984 36.2C97.1651 36.2 98.4984 35.7 99.4984 34.7C100.498 33.7 100.998 32.55 100.998 31.25V17.45ZM120.231 18.15C122.498 18.45 124.381 18.9167 125.881 19.55C127.381 20.15 128.481 20.9 129.181 21.8C129.914 22.7 130.414 23.6 130.681 24.5C130.948 25.3667 131.081 26.3667 131.081 27.5C131.081 29.4 130.531 31.0667 129.431 32.5C128.364 33.9 127.031 34.9333 125.431 35.6C123.864 36.2667 122.181 36.6 120.381 36.6C117.114 36.6 113.548 36.0167 109.681 34.85V28.8H109.831C109.831 30.4333 110.881 32.05 112.981 33.65C115.114 35.2167 117.581 36 120.381 36C122.514 36 124.414 35.4333 126.081 34.3C127.781 33.1667 128.631 31.6167 128.631 29.65C128.631 28.4833 128.281 27.5167 127.581 26.75C126.914 25.95 125.998 25.3167 124.831 24.85C123.664 24.3833 122.131 23.9667 120.231 23.6C117.998 23.2 116.131 22.6833 114.631 22.05C113.131 21.4167 111.931 20.5667 111.031 19.5C110.131 18.4333 109.681 17.1833 109.681 15.75C109.681 13.2167 110.681 11.25 112.681 9.85C114.714 8.41667 117.114 7.7 119.881 7.7C121.314 7.7 122.964 7.86666 124.831 8.2C126.698 8.53333 128.114 8.96667 129.081 9.5V15.55H128.881C128.881 13.8167 128.031 12.1833 126.331 10.65C124.631 9.08333 122.481 8.3 119.881 8.3C117.914 8.3 116.298 8.73333 115.031 9.6C113.764 10.4667 113.131 11.5833 113.131 12.95C113.131 14.5167 113.731 15.7 114.931 16.5C116.131 17.3 117.898 17.85 120.231 18.15ZM148.41 31.35L148.86 31.55C148.193 33.1167 147.393 34.35 146.46 35.25C145.56 36.15 144.593 36.6 143.56 36.6C142.26 36.6 141.143 36.4333 140.21 36.1C139.31 35.8 138.61 35.4167 138.11 34.95C137.61 34.4833 137.21 33.8667 136.91 33.1C136.61 32.3 136.427 31.55 136.36 30.85C136.293 30.1167 136.26 29.25 136.26 28.25V13.15C136.26 11.3833 136.177 9.96666 136.01 8.9H132.01V8.3H135.96C135.427 5.36667 134.11 3.9 132.01 3.9V3.7C132.677 3.7 134.027 3.41666 136.06 2.85C138.093 2.28333 139.76 1.71667 141.06 1.15H141.26V8.3H144.86V8.9H141.26V28.25C141.26 33.4167 142.027 36 143.56 36C144.527 36 145.46 35.5333 146.36 34.6C147.26 33.6667 147.943 32.5833 148.41 31.35ZM164.25 7.7C166.65 7.7 168.883 8.31666 170.95 9.55L169.05 11.65L166.15 14.75L166 14.65C166.767 13.8167 167.15 12.9 167.15 11.9C167.183 10.9 166.933 10.0833 166.4 9.45C165.867 8.78333 165.25 8.41667 164.55 8.35C164.45 8.31667 164.35 8.3 164.25 8.3C162.583 8.3 161.233 8.98333 160.2 10.35C159.2 11.7167 158.7 13.6333 158.7 16.1V23.95C158.7 31.85 160.117 35.8 162.95 35.8V36H149.45V35.8C152.283 35.8 153.7 31.85 153.7 23.95V20.35C153.7 19.4833 153.683 18.7167 153.65 18.05C153.617 17.3833 153.55 16.6667 153.45 15.9C153.35 15.1333 153.2 14.4833 153 13.95C152.8 13.4167 152.55 12.9167 152.25 12.45C151.95 11.9833 151.567 11.6333 151.1 11.4C150.633 11.1667 150.083 11.05 149.45 11.05V10.85C150.117 10.85 151.467 10.5833 153.5 10.05C155.533 9.48333 157.2 8.9 158.5 8.3H158.7V12.45C159 11.4833 159.383 10.6667 159.85 10C160.317 9.3 160.933 8.75 161.7 8.35C162.467 7.91666 163.317 7.7 164.25 7.7ZM183.529 7.7C185.396 7.7 187.179 8.08333 188.879 8.85C190.579 9.61666 192.046 10.65 193.279 11.95C194.512 13.2167 195.479 14.75 196.179 16.55C196.912 18.3167 197.279 20.1833 197.279 22.15C197.279 26.15 195.929 29.5667 193.229 32.4C190.562 35.2 187.329 36.6 183.529 36.6C179.729 36.6 176.479 35.2 173.779 32.4C171.112 29.5667 169.779 26.1667 169.779 22.2C169.779 18.2 171.112 14.7833 173.779 11.95C176.479 9.11666 179.729 7.7 183.529 7.7ZM177.779 31.95C179.379 34.65 181.296 36 183.529 36C185.796 36 187.712 34.65 189.279 31.95C190.879 29.25 191.679 25.9833 191.679 22.15C191.679 18.3167 190.879 15.05 189.279 12.35C187.712 9.65 185.796 8.3 183.529 8.3C181.296 8.3 179.379 9.65 177.779 12.35C176.212 15.05 175.429 18.3167 175.429 22.15C175.429 25.9833 176.212 29.25 177.779 31.95Z" fill="#3F4999"/>
</svg>
