<svg width="611" height="611" viewBox="0 0 611 611" fill="none" xmlns="http://www.w3.org/2000/svg">
<path d="M0.397931 394.461C0.284236 361.65 0.0947454 328.821 0 296.011C0 229.726 0 163.403 0.132644 97.1554C0.303185 48.8616 31.2849 11.4159 78.4682 1.61275C82.1685 0.816403 85.9395 0.396313 89.7239 0.358858C151.624 0.358858 213.48 0.358858 275.292 0.358858C278.912 4.29151 279.594 9.38307 280.712 14.2656C291.134 60.2606 303.678 105.705 314.612 149.8C313.721 147.748 315.18 144.271 316.09 140.871C327.819 97.3834 338.999 53.7632 350.558 10.238C351.377 6.52769 353.17 3.104 355.75 0.320861C410.343 0.320861 464.935 -0.401076 519.508 0.320861C566.578 1.11879 609.63 40.9773 610.161 86.8583C611.373 194.75 610.54 302.68 610.54 410.59C608.645 414.39 605.139 416.632 601.728 418.911C519.736 473.874 437.629 528.684 354.897 582.525C324.029 602.568 291.816 600.631 261.497 580.511C224.983 556.269 189.889 529.957 154.17 504.518C104.902 469.428 55.7861 433.977 6.00686 399.533C4.0269 397.969 2.1531 396.274 0.397931 394.461Z" fill="#3F4999"/>
<path d="M0.397874 394.46C10.7062 398.108 18.7785 405.365 27.4572 411.559C104.302 466.185 181.09 520.888 257.821 575.666C290.471 598.92 326.038 599.509 359.199 577.414C440.604 523.294 521.984 469.181 603.339 415.073C605.689 413.497 608.133 412.072 610.54 410.59C610.54 438.695 610.54 466.8 610.54 494.904C607.603 499.616 602.429 500.604 597.787 502.504C564.512 515.214 531.465 528.589 498.247 541.374C483.884 546.884 481.648 557.675 492.013 569.207C503.382 581.803 517.632 590.542 531.181 600.269C534.08 602.378 538.457 603.214 538.344 608.116C530.716 610.17 522.838 611.136 514.941 610.984C375.426 610.984 235.903 610.984 96.375 610.984C87.1847 610.984 78.0891 610.49 69.4294 606.976C70.2442 602.169 74.5836 600.934 77.8996 598.768C88.4732 591.872 99.5964 585.85 109.507 577.87C114.557 574.116 119.026 569.635 122.771 564.571C128.986 555.547 127.679 548.347 118.11 543.407C99.0468 533.566 80.0977 523.497 60.4854 514.777C42.0101 506.569 24.2548 496.937 6.1205 488.065C3.87421 486.903 1.88822 485.293 0.28418 483.334C0.334711 453.697 0.372609 424.072 0.397874 394.46Z" fill="#FFD00C"/>
<path d="M0.322414 483.221C40.305 502.504 80.3255 521.673 120.232 541.109C129.707 545.687 131.924 554.028 126.921 563.28C123.548 569.511 118.224 573.995 112.785 578.345C99.2177 589.193 83.7932 597.23 69.4487 606.843C32.9717 597.895 2.76685 562.216 0.568752 524.732C-0.246059 510.939 0.360312 497.07 0.322414 483.221Z" fill="#3F4999"/>
<path d="M538.362 607.964C525.856 598.959 513.236 590.048 500.843 580.872C494.887 576.682 489.813 571.356 485.911 565.198C479.374 554.293 482.538 544.794 494.42 540.14C533.088 524.941 571.801 509.837 610.558 494.829C611.165 511.832 612.074 528.893 606.105 545.288C594.3 577.87 571.959 599.054 538.362 607.964Z" fill="#3F4999"/>
<path d="M355.75 0.320801C342.183 51.7303 328.647 103.153 315.142 154.587C300.305 103.292 285.828 52.3383 275.349 0.377796L355.75 0.320801Z" fill="#FFD00B"/>
<path d="M386.921 178.069C407.405 158.919 430.144 144.822 459.44 144.195C490.744 143.53 516.78 154.739 537.131 178.278C541.432 183.237 543.896 182.857 548.368 179.228C560.381 169.52 572.755 160.23 584.883 150.731C588.767 147.672 590.719 147.501 591.003 153.258C592.898 192.299 591.117 230.923 576.033 267.647C557.501 312.787 524.17 337.58 474.788 339.84C461.335 340.486 447.975 341.74 434.882 337.485C375.021 323.768 339.568 246.198 377.864 190.361C380.043 185.669 384.799 182.838 386.921 178.069Z" fill="#FFD00C"/>
<path d="M332.102 371.586C335.247 371.586 338.412 371.358 341.576 371.586C356.091 372.745 362.97 381.656 360.146 396.132C358.024 407.094 352.794 416.897 346.882 426.169C341.659 434.438 335.965 442.399 329.828 450.012C326.341 454.229 326.777 456.414 330.472 459.91C341.027 469.884 351.127 480.314 358.024 493.328C367.764 511.68 361.568 523.079 340.761 524.998C317.738 527.126 300.665 516.43 287.098 499.141C275.192 484.352 266.771 467.057 262.464 448.549C257.916 427.936 267.485 410.343 279.84 394.84C292.915 378.369 310.917 370.883 332.102 371.586Z" fill="#EB569A"/>
<path d="M549.637 144.404C518.125 113.38 479.033 105.989 438.596 103.083C422.584 101.943 406.382 102.912 390.351 102.988C387.187 102.988 384.363 103.634 382.772 99.435C378.224 87.2001 374.586 74.7372 376.14 61.6283C378.205 44.2638 389.29 33.4158 408.353 31.041C449.908 25.8354 506.737 40.2932 533.057 94.3625C540.687 110.267 546.259 127.084 549.637 144.404Z" fill="#FFD00B"/>
<path d="M66.7766 126.641C78.7145 82.2984 98.9901 44.8337 145.34 28.4381C165.104 21.5881 186.151 19.2831 206.924 21.6937C235.101 24.6574 247.987 42.9718 242.113 70.6714C241.923 71.6023 241.601 72.5712 241.374 73.4072C235.689 97.0031 235.689 96.3382 211.68 94.3054C178.842 91.4746 146.097 92.4055 114.111 101.753C96.7163 106.5 80.5628 114.993 66.7766 126.641Z" fill="#FFD00B"/>
<path d="M18.9491 156.221L20.0102 146.874C32.4408 156.487 44.2271 165.169 55.4829 174.498C61.8498 179.779 65.488 181.204 72.5371 173.719C103.765 140.301 153.658 133.993 192.864 157.266C211.812 168.445 226.461 185.686 234.458 206.219C242.455 226.751 243.335 249.383 236.958 270.477C230.58 291.571 217.314 309.904 199.293 322.529C181.271 335.153 159.539 341.337 137.589 340.087C126.75 339.498 115.817 339.08 105.376 335.585C76.7059 329.125 57.0557 310.659 42.6544 286.436C21.3556 250.681 15.0077 211.354 18.0964 170.28C18.4374 165.587 17.9258 160.857 18.9491 156.221Z" fill="#FFD00D"/>
<path d="M289.58 267.229C290.603 263.638 293.37 264.911 295.681 265.082C304.607 265.747 313.494 266.526 322.4 267.248C327.156 272.814 322.968 278.894 322.532 284.346C321.187 301.122 317.985 317.745 315.256 334.388C315.089 335.635 314.666 336.835 314.013 337.911C313.361 338.986 312.494 339.915 311.466 340.638C306.047 342.823 301.044 342.804 296.913 337.959C292.498 317.346 291.096 296.296 287.931 275.493C287.621 272.634 288.197 269.748 289.58 267.229Z" fill="#FFCF0F"/>
<path d="M18.9491 156.221C17.8501 192.622 20.4461 228.548 33.8052 262.916C46.6906 296.125 67.9135 321.279 102.401 333.59C103.464 334.137 104.451 334.82 105.338 335.623C77.407 332.868 55.6345 319.189 39.1678 297.075C20.7303 272.377 15.633 243.272 14.1739 213.387C13.2882 194.205 14.8934 174.989 18.9491 156.221Z" fill="#140B09"/>
<path d="M379.569 189.81C349.933 240.954 368.541 291.527 400.868 318.258C411.138 326.769 423.304 331.557 434.976 337.522C413.886 335.509 397.23 324.774 382.923 310.184C367.129 294.11 357.864 272.719 356.933 250.174C356.001 227.629 363.469 205.543 377.883 188.214C379.323 187.739 379.967 188.214 379.569 189.81Z" fill="#180E0B"/>
<path d="M298.562 338.282C302.806 339.84 307.222 339.365 311.599 339.441C312.908 338.526 314.427 337.958 316.014 337.788C322.874 339.688 330.813 336.554 336.972 342.082C331.609 347.231 327.497 355.818 320.353 356.483C308.794 357.519 297.144 356.607 285.885 353.785C279.404 352.113 277.111 343.032 273.17 337.105C279.082 333.685 285.449 335.357 291.664 335.414C294.336 335.452 296.231 337.409 298.562 338.282Z" fill="#110509"/>
<path d="M294.867 337.997L273.17 337.104C273.606 319.74 279.082 303.23 281.925 286.284C282.891 280.47 283.156 274.353 286.169 268.995C290.717 276.253 289.466 284.669 290.925 292.534C293.086 304.218 293.578 316.13 295.814 327.833C296.617 331.234 296.284 334.805 294.867 337.997Z" fill="#FECE19"/>
<path d="M336.972 342.082C329.866 340.543 322.4 342.082 315.408 339.517C313.721 326.484 317.947 314.078 319.785 301.52C320.789 294.662 319.406 287.025 324.693 281.135C330.35 301.102 334.456 321.479 336.972 342.082Z" fill="#FECE1A"/>
<path d="M324.693 281.078C321.585 300.558 318.49 320.038 315.407 339.517H311.618L322.419 267.324C323.707 265.671 325.773 262.669 326.208 267.21C326.644 271.75 325.261 276.424 324.693 281.078Z" fill="#7E4894"/>
<path d="M294.867 337.997L286.131 269.014C287.06 267.286 284.615 264.626 287.59 263.695C288.339 264.806 288.974 265.99 289.485 267.229C292.454 290.926 295.442 314.61 298.448 338.282C297.198 339.821 296.042 338.814 294.867 337.997Z" fill="#7A4694"/>
<path d="M301.688 586.116C294.544 585.431 287.574 583.503 281.091 580.416C279.385 579.637 277.301 578.82 277.737 576.616C278.173 574.413 280.522 574.489 282.303 574.717C289.637 575.989 296.989 577.262 304.284 578.858C306.691 579.39 309.458 581.252 308.832 583.912C307.923 587.901 304.171 585.47 301.688 586.116Z" fill="#763D90"/>
<path d="M407.292 533.737C406.597 534.716 405.789 535.609 404.885 536.397C398.405 540.83 391.873 545.206 385.292 549.525C383.795 550.494 381.9 551.862 380.289 549.81C378.679 547.758 380.289 546.276 381.843 545.212C388.627 540.672 395.448 536.131 402.346 531.761C404.355 530.488 406.572 530.07 407.292 533.737Z" fill="#793E90"/>
<path d="M453.243 501.82C452.883 503.036 452.883 503.872 452.504 504.176C445.194 510.133 437.288 515.315 428.913 519.64C428.62 519.759 428.306 519.813 427.991 519.8C427.677 519.787 427.368 519.707 427.087 519.565C426.805 519.423 426.557 519.222 426.359 518.976C426.161 518.731 426.017 518.445 425.938 518.14C425.855 517.699 425.88 517.244 426.008 516.815C426.137 516.385 426.366 515.993 426.677 515.67C434.256 510.597 441.836 505.582 449.548 500.699C451.102 499.673 452.334 500.927 453.243 501.82Z" fill="#783E90"/>
<path d="M51.1625 411.407C53.0574 412.547 54.9523 413.592 56.6767 414.826C62.513 418.968 68.3304 423.129 74.1099 427.365C75.3984 428.296 76.5353 429.683 75.3605 431.26C75.1163 431.569 74.8103 431.824 74.4622 432.008C74.1141 432.191 73.7315 432.3 73.339 432.327C72.9465 432.354 72.5527 432.298 72.1829 432.163C71.8131 432.029 71.4755 431.818 71.1917 431.545C64.0858 426.491 56.9799 421.457 49.9877 416.346C49.5966 415.916 49.2947 415.413 49.0995 414.865C48.9043 414.317 48.8197 413.736 48.8507 413.155C48.7939 412.566 50.1393 412.072 51.1625 411.407Z" fill="#763E90"/>
<path d="M166.203 493.822C166.051 496.349 164.118 497.47 162.413 496.349C154.833 491.295 147.595 485.881 140.261 480.542C139.989 480.384 139.754 480.169 139.572 479.912C139.39 479.654 139.265 479.361 139.206 479.051C139.146 478.741 139.154 478.422 139.228 478.116C139.303 477.809 139.442 477.522 139.636 477.274C140.078 476.887 140.608 476.615 141.18 476.482C141.752 476.349 142.348 476.361 142.914 476.514C150.399 481.644 157.751 486.964 165.103 492.283C165.551 492.733 165.922 493.253 166.203 493.822Z" fill="#EB569A"/>
<path d="M211.51 526.043C211.415 528.608 209.482 529.729 207.72 528.589C200.14 523.535 192.883 518.159 185.625 512.744C185.252 512.302 184.999 511.77 184.889 511.202C184.78 510.633 184.818 510.045 185 509.495C185.421 509.105 185.935 508.832 186.494 508.702C187.052 508.572 187.634 508.59 188.183 508.754C195.763 513.884 203.002 519.222 210.354 524.542C210.816 524.978 211.206 525.485 211.51 526.043Z" fill="#EB569A"/>
<path d="M121.123 462.056C120.327 465.153 118.261 465.058 116.196 463.633C109.279 458.846 102.458 453.925 95.6361 449.005C94.3286 448.074 93.1538 446.668 94.1202 445.205C94.5327 444.793 95.0439 444.495 95.6048 444.338C96.1657 444.182 96.7572 444.173 97.3226 444.312C104.902 449.594 112.482 455.084 120.061 460.537C120.504 460.974 120.864 461.489 121.123 462.056Z" fill="#EB569A"/>
<path d="M8.28076 383.062C15.8604 387.127 24.7475 390.414 31.1713 397.614C31.4295 397.806 31.635 398.06 31.7685 398.352C31.9021 398.645 31.9592 398.967 31.9346 399.288C31.9099 399.609 31.8044 399.918 31.6278 400.187C31.4511 400.456 31.2093 400.676 30.9249 400.825C30.2617 401.3 29.03 401.775 28.4426 401.471C20.7745 396.759 13.1886 391.959 5.68473 387.07C5.36496 386.762 5.12008 386.384 4.96896 385.965C4.81783 385.547 4.7645 385.1 4.81307 384.657C4.92677 383.157 6.2911 383.043 8.28076 383.062Z" fill="#EB569A"/>
<path d="M592.746 410.381C592.032 411.333 591.212 412.199 590.302 412.965C583.581 417.525 576.817 422.034 570.008 426.492C568.7 427.347 567.089 428.183 565.82 426.492C564.228 424.44 565.649 422.996 567.26 421.913C574.006 417.373 580.752 412.813 587.63 408.462C589.506 407.361 591.818 406.848 592.746 410.381Z" fill="#EB569A"/>
<path d="M546.151 441.576C545.306 442.5 544.387 443.351 543.403 444.122C536.903 448.549 530.328 452.88 523.81 457.288C522.104 458.447 520.342 459.188 518.864 457.288C517.386 455.388 518.864 454.343 520.209 453.488C527.239 448.739 534.288 443.989 541.432 439.373C542.497 438.844 543.718 438.729 544.862 439.05C545.393 439.126 545.734 440.475 546.151 441.576Z" fill="#EB569A"/>
<path d="M361.927 563.109C358.289 568.333 352.927 570.556 348.246 573.482C343.566 576.407 339.283 579.58 333.636 578.858C333.244 578.769 332.89 578.557 332.625 578.252C332.361 577.948 332.2 577.567 332.167 577.165C332.133 576.762 332.228 576.36 332.437 576.015C332.647 575.671 332.961 575.402 333.333 575.249C342.296 571.943 349.686 565.882 357.967 561.494C359.71 560.62 360.904 561.722 361.927 563.109Z" fill="#783E90"/>
<path d="M499.934 471.708C499.142 472.867 498.206 473.921 497.148 474.842C490.724 479.288 484.206 483.6 477.725 487.951C476.077 489.053 474.144 489.851 472.78 487.951C471.756 486.507 472.78 484.93 474.22 483.999C481.206 479.263 488.217 474.57 495.253 469.922C497.091 468.763 498.778 468.782 499.934 471.708Z" fill="#EB569A"/>
<path d="M231.956 540.406C233.151 540.964 234.309 541.599 235.423 542.306C241.841 546.827 248.233 551.387 254.6 555.984C255.964 556.953 256.893 558.435 255.983 559.993C255.074 561.551 253.273 561.285 251.909 560.316C244.955 555.471 238 550.608 231.065 545.573C230.679 545.127 230.385 544.608 230.2 544.047C230.014 543.487 229.941 542.895 229.985 542.306C230.08 541.66 231.179 541.071 231.956 540.406Z" fill="#EB569A"/>
<path d="M287.363 102.608C287.36 102.049 287.522 101.502 287.829 101.035C288.136 100.569 288.574 100.203 289.087 99.9859C291.645 98.827 292.46 101.069 292.877 102.76C294.677 109.39 296.326 116.059 297.88 122.746C298.202 124.171 298.183 126.071 296.212 126.546C295.822 126.607 295.424 126.591 295.041 126.497C294.657 126.403 294.296 126.234 293.979 125.998C293.661 125.763 293.394 125.467 293.192 125.127C292.989 124.787 292.857 124.411 292.801 124.019C291.02 117.445 289.409 110.777 287.363 102.608Z" fill="#7B3F91"/>
<path d="M279.196 54.751C279.726 55.4349 280.807 56.2708 281.091 57.3158C282.986 64.1932 284.881 71.1086 286.434 78.062C286.495 78.6519 286.416 79.2479 286.206 79.8021C285.995 80.3564 285.658 80.8535 285.222 81.2537C284.967 81.4402 284.671 81.5634 284.36 81.6129C284.048 81.6625 283.729 81.637 283.429 81.5387C283.13 81.4403 282.857 81.2719 282.635 81.0472C282.413 80.8226 282.247 80.5482 282.152 80.2468C279.992 72.4954 277.945 64.7251 276.088 56.8978C275.823 55.7579 277.263 54.884 279.196 54.751Z" fill="#7C3F91"/>
<path d="M350.444 55.9669C348.663 62.7113 346.768 69.7027 344.873 76.6561C344.456 78.0809 343.433 79.6768 341.444 78.8979C340.708 78.5755 340.127 77.9788 339.823 77.234C339.518 76.4893 339.515 75.6552 339.814 74.9082C341.583 68.2208 343.477 61.5587 345.499 54.922C345.934 53.4591 346.882 51.9582 348.891 52.6801C350.103 53.2121 350.558 54.314 350.444 55.9669Z" fill="#783E91"/>
<path d="M362.022 12.2898C360.241 18.7872 358.63 24.8097 356.944 30.7942C356.451 32.561 355.921 34.7838 353.4 33.9859C351.202 33.283 351.259 31.3071 351.79 29.3313C353.419 23.3278 355.017 17.3117 356.584 11.2829C357.077 9.38306 357.721 7.19825 359.862 7.48323C362.837 7.99618 362.288 10.618 362.022 12.2898Z" fill="#7D4091"/>
<path d="M305.497 171.173C305.209 170.429 304.969 169.667 304.777 168.893C303.072 162.206 301.309 155.594 299.756 148.831C299.433 147.425 299.433 145.354 301.65 145.278C302.232 145.343 302.788 145.55 303.271 145.881C303.753 146.213 304.147 146.658 304.417 147.178C306.312 154.131 307.961 161.123 309.533 168.076C309.742 169.349 309.249 170.717 305.497 171.173Z" fill="#753E90"/>
<path d="M328.293 118.718C329.885 112.582 331.306 106.806 332.955 101.126C333.428 99.473 333.959 97.0603 336.498 97.6302C339.037 98.2002 338.639 100.252 338.147 102.171C336.574 108.231 335.115 114.311 333.428 120.333C332.936 122.119 331.799 124.133 329.506 123.259C327.213 122.385 328.198 120.105 328.293 118.718Z" fill="#7A3F91"/>
<path d="M316.336 163.706C317.947 157.665 319.501 151.604 321.206 145.601C321.623 144.081 322.627 142.523 324.446 142.846C327.156 143.302 326.606 145.658 326.208 147.311C324.768 153.39 323.17 159.438 321.414 165.454C320.922 167.126 320.202 169.444 317.625 168.532C315.047 167.62 315.957 165.587 316.336 163.706Z" fill="#EB569A"/>
<path d="M275.027 32.485C275.027 33.6249 275.728 35.9237 272.943 36.1897C271.142 36.3417 270.214 34.8028 269.835 33.2829C268.357 27.2415 266.936 21.2 265.666 15.1205C265.306 13.4107 264.794 11.0929 267.182 10.4279C269.57 9.763 270.422 12.0048 270.839 13.7147C272.317 19.7371 273.568 25.8356 275.027 32.485Z" fill="#EB569A"/>
<path d="M379.569 189.81L377.845 188.214C380.176 184.268 383.261 180.821 386.921 178.069C386.41 183.199 382.43 186.201 379.569 189.81Z" fill="#5F393B"/>
<path d="M550.111 242.512C550.111 290.521 510.545 329.999 462.945 329.638C414.739 329.258 375.666 290.198 375.647 242.379C375.664 219.186 384.871 196.95 401.241 180.562C417.61 164.175 439.803 154.978 462.936 154.996C486.069 155.014 508.247 164.244 524.592 180.656C540.937 197.069 550.11 219.319 550.092 242.512H550.111Z" fill="#EB569A"/>
<path d="M281.64 460.917C281.792 454.875 283.668 452.045 289.694 450.544C309.685 445.566 324.143 434.376 326.19 409.469C329.411 420.982 328.786 423.357 321.452 435.915C317.814 442.165 313.626 448.625 323.442 454.4C308.87 453.317 293.938 448.378 281.64 460.917Z" fill="#0C0111"/>
<path d="M230.004 242.341C230.004 265.489 220.844 287.692 204.534 304.076C188.224 320.46 166.097 329.688 143.009 329.733C95.1813 329.733 55.6345 290.368 55.5777 242.645C55.5501 219.454 64.7121 197.202 81.0482 180.785C97.3842 164.367 119.556 155.128 142.687 155.1C165.817 155.072 188.011 164.258 204.386 180.637C220.761 197.015 229.976 219.245 230.004 242.436V242.341Z" fill="#EB569A"/>
<path d="M484.888 293.256C483.513 293.761 482.069 294.049 480.606 294.111C471.7 293.75 469.558 298.329 470.146 306.422C470.411 310.089 473.102 317.137 467.152 317.156C462.263 317.156 464.499 310.26 464.726 306.612C465.181 299.127 463.987 294.377 454.873 295.783C452.523 296.144 449.927 294.966 447.464 294.453C440.528 293.028 434.673 293.446 432.608 302.052C431.982 304.579 430.94 308.189 426.923 306.023C423.493 304.123 425.653 301.121 426.828 299.526C431.944 292.591 428.951 289.247 422.148 286.854C420.047 286.154 418.138 284.969 416.577 283.396C410.153 276.557 403.881 275.037 397.059 282.902C395.695 284.498 393.269 285.904 391.374 283.358C391.072 282.983 390.857 282.546 390.743 282.078C390.629 281.61 390.619 281.123 390.715 280.651C390.811 280.179 391.01 279.734 391.298 279.348C391.585 278.962 391.955 278.645 392.379 278.418C399.144 273.916 405.643 269.489 399.428 259.914C398.594 258.641 400.091 256.893 401.759 256.551C402.554 256.358 403.394 256.482 404.101 256.897C404.807 257.311 405.326 257.984 405.548 258.774C413.28 279.14 430.182 286.246 449.813 288.45C474.163 291.185 496.997 288.127 514.468 268.178C518.542 263.408 521.906 258.071 524.454 252.334C525.382 250.301 526.027 247.736 528.907 248.762C532.356 249.959 530.935 252.771 530.29 255.126C529.936 256.297 529.392 257.401 528.68 258.394C523.279 266.107 518.125 273.593 530.802 279.634C531.247 279.823 531.642 280.113 531.956 280.481C532.269 280.85 532.493 281.287 532.609 281.757C532.725 282.227 532.73 282.718 532.623 283.191C532.517 283.663 532.302 284.104 531.996 284.479C530.101 287.196 528.111 285.429 526.311 284.308C524.765 283.222 523.308 282.015 521.953 280.698C518.314 277.468 514.733 275.512 510.981 280.698C510.145 281.655 509.083 282.387 507.892 282.826C498.645 286.626 494.154 291.47 503.477 300.115C503.91 300.471 504.258 300.919 504.497 301.427C504.736 301.934 504.86 302.488 504.86 303.05C504.86 303.611 504.736 304.165 504.497 304.673C504.258 305.18 503.91 305.629 503.477 305.985C500.938 307.885 499.479 305.51 498.19 303.895C495.995 301.221 493.969 298.41 492.127 295.479C490.781 293.009 488.981 291.679 484.888 293.256Z" fill="#09030D"/>
<path d="M205.427 260.959C197.601 269.945 205.92 273.422 212.154 277.887C213.556 278.894 215.053 280.489 213.575 282.674C212.097 284.859 209.956 285.03 208.156 283.016C200.576 274.543 193.83 276.006 187.084 284.175C185.295 286.001 183.051 287.313 180.585 287.975C175.014 289.742 174.009 292.762 176.909 297.702C178.463 300.343 180.812 304.123 177.117 305.966C173.024 307.999 171.849 303.021 171.281 300.628C169.613 293.75 165.596 292.553 159.608 294.282C158.124 294.809 156.559 295.073 154.985 295.061C143.066 294.301 137.93 299.317 140.583 311.4C141.152 314.135 140.924 317.821 136.926 317.612C132.928 317.403 133.61 313.812 133.496 310.982C133.613 309.718 133.613 308.446 133.496 307.182C132.549 302.831 136.642 296.068 128.74 294.966C122.089 294.054 113.922 288.621 109.791 299.431C108.787 301.398 107.454 303.178 105.85 304.693C104.637 306.042 103.329 307.619 101.093 306.194C98.4405 304.503 98.9521 302.622 100.79 300.799C109.469 292.23 105.925 288.089 96.6214 282.256C89.5913 277.849 85.7067 277.184 80.1167 282.75C78.4492 284.422 75.6448 287.804 73.0487 284.327C70.7938 281.287 73.693 279.254 76.1943 277.678C82.0496 273.878 85.6688 269.812 78.8472 263.638C78.182 262.952 77.6998 262.109 77.4449 261.187C76.1564 257.159 70.4338 251.821 75.6637 249.256C81.3484 246.52 80.9316 254.538 82.9212 257.805C94.1391 276.348 110.227 286.797 131.867 288.564C142.476 289.65 153.188 289.086 163.625 286.892C179.543 283.225 192.049 275.341 198.776 259.933C199.723 257.786 200.197 255.754 203.191 256.399C205.37 256.855 204.897 258.622 205.427 260.959Z" fill="#09030E"/>
</svg>
