<svg width="611" height="611" viewBox="0 0 611 611" fill="none" xmlns="http://www.w3.org/2000/svg">
<g clip-path="url(#clip0_21_64)">
<path d="M610.367 218.227C610.49 236.593 610.719 254.959 610.719 273.324C610.719 332.832 610.719 392.333 610.719 451.829C610.719 455.031 610.472 458.232 610.349 461.416C602.05 469.861 590.497 472.165 580.333 476.985C566.916 483.336 553.095 488.842 539.59 495.052C529.04 499.925 528.829 499.978 532.732 511.412C541.402 536.798 549.262 562.429 557.561 587.937C558.792 591.737 560.99 595.484 559.32 599.741C546.637 607.122 532.213 610.979 517.54 610.912C376.162 611.018 234.785 611.018 93.4075 610.912C77.8603 611.068 62.5977 606.737 49.4469 598.439C48.0402 594.411 50.0272 591.016 51.6449 587.638C64.6045 560.547 76.7728 533.103 89.75 506.029C94.1285 496.899 93.8999 496.459 84.8968 492.501C59.2941 481.225 34.1838 468.893 8.5987 457.599C5.27527 456.174 2.16286 454.644 0.492359 451.231C0.351685 437.843 0.0879213 424.456 0.0879213 411.069C0.0879213 353.391 0.0879213 295.713 0.0879213 238.035C0.0879213 234.834 0.351685 231.649 0.492359 228.448C2.02219 224.929 5.41595 223.803 8.5987 222.291C34.4651 209.976 60.5602 198.313 86.62 186.509C92.669 183.782 93.3724 181.231 90.6116 175.391C74.1352 140.858 58.1863 106.079 42.2022 71.3349C37.4193 61.0085 32.9881 50.5062 27.8007 40.3381C26.3588 37.5234 24.9169 34.5503 25.6378 31.1375C44.7871 10.1153 68.8248 -4.07117e-05 97.1354 -4.07117e-05C194.376 -4.07117e-05 291.611 -4.07117e-05 388.841 -4.07117e-05C430.304 -4.07117e-05 471.768 -4.07117e-05 513.232 -4.07117e-05C537.129 -0.455803 560.321 8.1115 578.188 23.9952C578.346 31.7708 575.128 38.7548 572.737 45.8443C559.548 84.8102 547.697 124.216 534.368 163.112C533.612 165.328 532.944 167.562 532.328 169.814C529.497 180.176 529.673 180.668 539.538 184.837C560.744 193.792 581.652 203.485 602.841 212.633C605.887 213.637 608.527 215.599 610.367 218.227Z" fill="#FFD009"/>
<path d="M25.5675 31.1375C44.031 70.7074 62.471 110.26 80.8876 149.794C85.3188 159.294 89.3104 169.005 94.2164 178.258C96.9068 183.325 95.3418 184.82 90.6996 186.878C60.6481 200.547 30.579 214.62 0.474775 228.448C0.474775 217.33 0.474775 206.188 0.474775 195.023C2.78795 192.381 5.7174 190.35 9.00314 189.112C20.3977 183.835 31.6692 178.416 43.1693 173.438C53.7199 168.829 54.2826 168.442 49.5524 158.203C41.6923 141.333 33.9376 124.357 25.9895 107.486C20.5032 95.893 15.8258 83.9658 9.56583 72.6894C7.88235 69.295 7.01524 65.554 7.0337 61.7649C10.5506 49.9255 17.3029 40.1093 25.5675 31.1375Z" fill="#050403"/>
<path d="M610.367 218.227C583.78 206.563 557.21 194.83 530.552 183.307C527.229 181.864 526.367 180.756 527.598 176.991C543.869 127.277 560.012 77.5271 576.025 27.7422C576.613 26.4208 577.338 25.1649 578.188 23.9951C587.138 32.3512 595.192 41.3934 600.045 52.8809C600.555 59.1964 598.04 64.8962 596.071 70.6135C586.593 98.1799 578.153 126.081 569.026 153.77C565.826 163.481 565.879 163.78 575.691 167.967C584.483 171.749 593.275 175.848 602.067 179.648C605.162 180.985 608.872 181.741 610.437 185.435L610.367 218.227Z" fill="#050403"/>
<path d="M0.492359 451.231C30.3856 465.04 60.103 479.008 90.172 492.466C95.8342 495.017 96.432 496.97 93.8296 502.511C78.7071 534.37 64.1298 566.457 49.3942 598.439C39.8473 593.766 31.4432 587.052 24.7762 578.772C25.7785 568.955 31.2296 560.828 35.2213 552.243C40.4965 540.932 45.1564 529.374 51.0471 518.308C53.7551 513.295 52.4714 510.709 47.3016 508.264C34.1662 502.054 20.767 496.442 7.80741 489.862C4.95876 488.42 1.79359 487.523 0.263764 484.339L0.492359 451.231Z" fill="#040403"/>
<path d="M559.302 599.741C548.857 567.706 538.57 535.601 527.791 503.672C526.033 498.395 528.389 497.374 532.152 495.738C558.247 484.391 584.29 472.869 610.349 461.417C610.349 472.546 610.349 483.688 610.349 494.841C600.625 502.617 588.527 505.537 577.572 510.779C565.932 516.356 565.791 515.863 569.747 528.072C574.495 542.761 578.733 557.609 583.815 572.192C584.764 574.884 586.048 577.681 584.342 580.584C577.437 588.662 568.904 595.191 559.302 599.741Z" fill="#050503"/>
<path d="M7.0337 61.7649C22.9064 96.0573 38.8495 130.338 54.8629 164.607C56.6213 168.301 56.1641 170.043 52.4187 171.644C35.0454 179.437 17.7601 187.265 0.439606 195.076C0.439606 159.276 0.105506 123.477 0.439606 87.7656C0.428296 78.6833 2.69558 69.7433 7.0337 61.7649Z" fill="#375EA9"/>
<path d="M610.42 185.436C596.141 179.279 581.845 173.121 567.655 166.876C565.721 166.014 562.503 166.014 563.997 161.599C576.306 125.412 586.716 88.6629 600.045 52.8459C606.609 63.5681 610.162 75.8621 610.332 88.4343C610.859 120.786 610.455 153.049 610.42 185.436Z" fill="#375EA9"/>
<path d="M0.386854 484.339C17.5022 492.173 34.6058 499.978 51.6977 507.753C54.4936 509.038 57.5181 509.741 55.2146 514.544C44.8398 535.83 34.9399 557.345 24.8641 578.772C9.84718 563.361 2.2332 544.485 0.509943 523.463C-0.545112 510.515 0.369269 497.392 0.386854 484.339Z" fill="#375EA9"/>
<path d="M584.36 580.531C577.819 560.3 571.348 540.07 564.648 519.839C563.663 516.848 562.679 514.808 566.653 513.225C581.353 507.402 595.245 499.626 610.367 494.788C612.917 525.222 608.415 553.703 587.507 577.663C586.513 578.678 585.462 579.635 584.36 580.531Z" fill="#375EA9"/>
<path d="M300.691 40.2852C329.881 40.2852 359.07 40.4963 388.26 40.1093C394.942 40.1093 395.786 42.0444 394.661 48.008C380.5 122.175 366.473 196.372 352.582 270.598C351.843 274.573 350.999 277.283 345.654 277.353C319.101 277.74 292.549 278.514 266.015 279.481C260.599 279.675 258.682 278.074 257.469 272.621C240.564 196.952 223.402 121.325 205.982 45.7386C204.435 39.0361 206.949 38.7019 212.277 38.7019C241.748 38.8778 271.237 38.7899 300.726 38.7899L300.691 40.2852Z" fill="#010102"/>
<path d="M106.402 589.327C110.394 580.988 113.805 573.758 117.287 566.563C138.687 522.249 160.245 477.988 181.382 433.551C184.318 427.376 187.712 426.251 194.13 427.025C234.099 431.81 274.121 436.137 314.143 440.553C357.646 445.338 401.15 450.076 444.653 454.767C446.094 454.837 447.487 455.31 448.674 456.13C449.861 456.951 450.795 458.087 451.37 459.411C473.368 501.772 495.454 544.063 518.384 588.025C380.523 556.395 244.052 553.563 106.402 589.327Z" fill="#375EA9"/>
<path d="M487.787 248.925C539.801 248.925 584.079 293.625 582.004 345.68C580.931 372.56 567.567 393.459 544.426 407.761C494.223 438.829 425.891 400.408 413.511 343.516C402.679 293.274 436.933 248.942 487.787 248.925Z" fill="#375EA9"/>
<path d="M214.528 334.632C212.769 360.369 195.185 386.475 166.206 405.087C144.736 418.879 121.103 422.679 96.3793 415.185C58.8721 403.733 38.3513 367.089 45.8949 325.906C55.2146 275.259 108.354 239.706 157.625 251C192.161 258.969 215.302 288.999 214.528 334.632Z" fill="#375EA9"/>
<path d="M305.28 392.298C287.503 392.298 269.707 392.157 251.912 392.386C246.848 392.386 245.582 391.295 246.496 385.947C250.716 361.319 254.62 336.579 258.207 311.727C259.192 305.06 261.091 302.017 268.898 301.999C293.956 301.999 319.031 301.067 344.089 300.046C349.733 299.818 351.615 301.806 352.406 307.083C356.427 333.271 360.6 359.448 364.926 385.613C365.858 391.207 364.117 392.65 358.648 392.509C340.871 392.017 323.075 392.298 305.28 392.298Z" fill="#010202"/>
<path d="M306.054 401.833C326.487 401.833 346.92 401.692 367.353 401.833C373.384 401.833 377.903 401.71 375.477 393.618C374.949 391.858 373.841 388.34 377.446 388.164C380.154 388.041 379.486 391.26 379.925 393.037C380.537 395.885 380.954 398.77 381.174 401.675C381.315 403.064 381.49 405.387 379.802 405.193C365.295 403.909 356.169 415.449 344.159 420.058C339.955 421.967 335.41 423.008 330.795 423.119C323.215 422.673 315.613 422.738 308.041 423.313C283.634 426.075 261.32 421.29 241.414 406.512C240.025 405.492 238.267 404.964 236.842 403.962C234.627 402.396 230.828 408.852 230.248 403.293C229.738 398.596 231.637 393.635 232.64 388.815C232.64 388.463 234.222 388.041 234.838 388.27C235.18 388.397 235.493 388.595 235.755 388.85C236.016 389.106 236.222 389.413 236.358 389.753C236.493 390.093 236.557 390.457 236.543 390.823C236.53 391.188 236.44 391.547 236.28 391.876C232.165 403.047 239.709 401.78 246.496 401.745C266.349 401.763 286.201 401.833 306.054 401.833Z" fill="#060503"/>
<path d="M524.45 429.962C461.024 448.698 400.305 402.906 392.006 344.272C387.61 313.24 395.523 285.815 420.334 264.792C420.967 268.17 418.576 270.07 416.712 272.234C410.821 279.059 408.271 287.803 403.629 295.35C400.235 315.809 399.286 336.145 406.126 356.217C422.725 404.999 473.702 436.876 522.639 427.992C524.415 427.57 524.943 428.291 524.45 429.962Z" fill="#0F0D05"/>
<path d="M35.4147 320.523C29.3833 355.478 37.1731 392.157 72.1834 415.343C89.7676 427.042 109.567 431.176 130.633 428.836C133.693 428.502 136.77 427.306 139.953 428.836C93.3196 446.428 34.0079 421.272 24.8641 362.955C19.5889 328.862 30.8076 299.8 54.6167 275.312C56.3751 277.283 55.4607 278.936 54.0892 280.59C47.5572 288.656 42.53 297.833 39.248 307.681C37.2259 311.745 36.9269 316.319 35.4147 320.523Z" fill="#0F0D05"/>
<path d="M244.966 30.1876H232.798C231.233 30.1876 229.756 29.7654 229.58 28.0414C229.387 25.86 230.881 25.1036 232.868 25.1211C241.256 25.2091 249.644 25.2619 258.049 25.4026C259.579 25.4026 261.109 26.2646 261.073 27.8303C260.977 28.5605 260.599 29.2242 260.022 29.6807C259.444 30.1372 258.711 30.3506 257.979 30.2756C253.635 30.2756 249.292 30.2756 244.966 30.2756V30.1876Z" fill="#372D09"/>
<path d="M300.163 30.3282C295.802 30.3282 291.371 30.3282 287.063 30.3282C285.973 30.3282 284.689 30.2051 284.425 28.657C284.329 28.3046 284.317 27.9345 284.389 27.5764C284.461 27.2183 284.617 26.8822 284.842 26.5949C285.068 26.3076 285.358 26.0772 285.688 25.922C286.019 25.7669 286.381 25.6914 286.746 25.7016C295.75 25.7016 304.77 25.7896 313.773 25.9831C314.063 25.9962 314.347 26.071 314.605 26.2024C314.864 26.3339 315.091 26.519 315.273 26.7454C315.454 26.9718 315.585 27.2344 315.657 27.5155C315.729 27.7966 315.74 28.0898 315.69 28.3755C315.659 28.6634 315.572 28.9423 315.434 29.1964C315.295 29.4504 315.107 29.6746 314.882 29.856C314.657 30.0374 314.398 30.1725 314.12 30.2536C313.842 30.3346 313.551 30.36 313.263 30.3282C308.885 30.3634 304.524 30.3282 300.163 30.3282Z" fill="#3E3407"/>
<path d="M197.119 24.8748C198.579 24.8748 200.038 24.8748 201.48 24.8748C203.503 24.8748 205.982 24.7341 205.841 27.6367C205.736 29.9061 203.59 30.082 201.832 29.9061C194.798 28.9209 192.231 31.2606 195.097 38.2974C195.678 39.7575 196.029 41.9917 193.726 42.6074C191.422 43.2231 190.965 41.0241 190.455 39.4584C189.991 37.7788 189.615 36.0759 189.33 34.3568C187.255 24.7693 187.255 24.7693 197.119 24.8748Z" fill="#2A2306"/>
<path d="M38.7909 307.242C41.0241 297.513 46.229 289.28 51.8208 281.241C53.1044 279.482 55.3376 278.039 54.6167 275.295C59.9044 269.837 65.7444 264.944 72.0427 260.694C72.2318 260.834 72.3855 261.017 72.4913 261.228C72.5972 261.439 72.6523 261.672 72.6523 261.907C72.6523 262.143 72.5972 262.376 72.4913 262.587C72.3855 262.797 72.2318 262.981 72.0427 263.121C58.178 275.196 47.3372 290.356 40.391 307.382C39.7932 307.945 39.2656 307.945 38.7909 307.242Z" fill="#4158A0"/>
<path d="M394.204 124.902C392.774 132.326 391.337 139.761 389.896 147.209C389.526 149.161 389.544 151.747 386.537 151.026C384.357 150.516 384.779 148.51 385.113 146.716C386.572 139.275 387.944 131.833 389.315 124.392C389.685 122.404 389.913 119.941 392.674 120.539C394.819 120.909 394.643 123.002 394.204 124.902Z" fill="#2D2504"/>
<path d="M374.017 231.931C372.575 239.654 371.186 247.377 369.621 255.064C369.287 256.735 368.478 258.583 366.104 257.984C364.346 257.474 364.522 255.68 364.768 254.325C366.21 246.327 367.734 238.334 369.34 230.348C369.674 228.712 370.36 226.53 372.645 227.357C374.72 228.078 374.07 230.242 374.017 231.931Z" fill="#342B05"/>
<path d="M375.301 363.096C375.247 363.613 375.01 364.094 374.633 364.452C374.255 364.81 373.763 365.022 373.243 365.048C371.01 365.453 370.395 363.659 370.096 361.864C368.918 354.44 367.669 347.034 366.579 339.593C366.333 337.834 365.418 335.037 368.161 334.509C370.905 333.981 371.098 336.796 371.415 338.643C372.786 346.049 373.806 353.49 375.301 363.096Z" fill="#372E06"/>
<path d="M235.436 226.495C237.651 226.636 238.249 228.254 238.653 230.013C240.412 237.648 242.17 245.318 243.929 252.971C244.263 254.431 244.404 255.979 242.839 256.788C242.521 256.971 242.164 257.072 241.798 257.083C241.432 257.094 241.069 257.014 240.741 256.85C240.414 256.686 240.132 256.444 239.921 256.145C239.71 255.845 239.577 255.498 239.533 255.135C237.423 246.339 235.488 237.543 233.589 228.747C233.531 228.473 233.535 228.19 233.602 227.918C233.668 227.647 233.794 227.393 233.971 227.177C234.149 226.961 234.372 226.787 234.626 226.669C234.879 226.551 235.156 226.492 235.436 226.495Z" fill="#241E03"/>
<path d="M231.796 200.266C231.796 201.392 231.936 202.94 230.16 203.467C228.384 203.995 227.487 202.482 227.171 201.145C225.202 193.018 223.338 184.873 221.491 176.71C221.069 174.845 221.491 172.981 223.566 172.646C225.166 172.4 225.94 174.089 226.257 175.461C228.138 183.606 229.914 191.751 231.796 200.266Z" fill="#211C03"/>
<path d="M211.204 119.308C211.92 119.319 212.608 119.589 213.141 120.067C213.674 120.546 214.017 121.201 214.106 121.911C215.987 130.092 217.851 138.272 219.592 146.54C219.891 147.912 219.786 149.583 217.834 149.777C215.882 149.97 215.231 148.581 214.897 147.173C212.963 139.011 211.117 130.831 209.288 122.545C209.167 122.207 209.122 121.846 209.157 121.488C209.191 121.131 209.304 120.785 209.487 120.476C209.67 120.167 209.918 119.902 210.215 119.7C210.512 119.498 210.85 119.364 211.204 119.308Z" fill="#2D2505"/>
<path d="M395.136 92.9377C396.648 85.2325 398.143 77.5097 399.672 69.8044C399.971 68.3443 400.464 66.7962 402.345 67.0601C404.227 67.324 404.578 68.8193 404.315 70.3322C402.873 78.659 401.366 86.9682 399.796 95.2599C399.532 96.6672 398.635 98.2856 397.017 97.9162C394.274 97.3005 394.784 94.996 395.136 92.9377Z" fill="#372E06"/>
<path d="M207.494 92.8497C207.494 94.3626 207.67 96.0514 205.929 96.4736C203.485 97.0717 203.098 94.8552 202.729 93.3247C200.83 85.4435 199.106 77.492 197.278 69.6461C196.803 67.6582 197.278 65.9694 199.265 65.6351C200.812 65.3712 201.691 66.9017 202.025 68.3619C203.837 76.5421 205.736 84.7399 207.494 92.8497Z" fill="#211B03"/>
<path d="M247.393 292.412C247.305 291.215 247.235 290.353 247.199 289.474C247.111 286.272 243.366 280.907 247.305 280.361C252.58 279.622 251.631 286.501 251.736 289.738C251.93 296.018 250.347 302.333 249.503 308.631C249.327 309.933 248.624 310.883 247.305 310.76C245.546 310.584 244.949 309.177 245.16 307.611C245.845 302.439 246.672 297.302 247.393 292.412Z" fill="#181501"/>
<path d="M375.195 199.104C376.496 192.068 377.78 184.908 379.152 177.818C379.538 175.848 380.013 173.456 382.792 174.071C385.078 174.599 384.55 176.745 384.181 178.381C382.879 185.418 381.596 192.578 380.066 199.632C379.644 201.602 379.873 205.103 376.549 204.347C373.929 203.784 375.248 200.987 375.195 199.104Z" fill="#392F07"/>
<path d="M236.631 359.665C237.88 352.013 239.058 344.835 240.236 337.658C240.517 335.899 240.746 333.647 242.926 333.911C245.775 334.263 245.107 336.655 244.685 338.713C243.507 345.891 242.522 353.104 241.168 360.263C240.869 362.023 241.397 365.189 238.513 364.855C234.996 364.45 237.387 361.125 236.631 359.665Z" fill="#231E02"/>
<path d="M363.15 287.064C364.322 293.877 365.442 300.691 366.509 307.505C366.825 309.37 366.702 311.2 364.522 311.534C362.939 311.78 361.989 310.373 361.778 308.895C360.759 301.489 359.58 294.083 359 286.641C358.859 284.882 358.385 281.03 361.444 281.047C365.928 281.082 363.185 284.829 363.15 287.064Z" fill="#1D1901"/>
<path d="M403.822 26.3878C406.179 27.1619 411.12 24.6286 411.63 28.622C412.24 33.8472 411.161 39.1306 408.553 43.6982C408.234 43.9618 407.854 44.1404 407.449 44.2173C407.043 44.2942 406.624 44.2669 406.231 44.138C405.627 43.717 405.195 43.0921 405.014 42.3779C404.833 41.6638 404.916 40.9083 405.247 40.2502C408.218 32.3515 405.247 29.6951 397.369 30.7858C395.997 30.9793 394.239 30.5747 394.169 28.7627C394.098 26.9508 395.646 26.3878 397.193 26.3878C399.163 26.2823 401.273 26.3878 403.822 26.3878Z" fill="#272003"/>
<path d="M339.147 26.3877C348.731 26.3877 358.314 26.3877 367.898 26.3877C369.006 26.3877 370.166 26.7395 370.201 28.3052C370.236 29.8709 369.129 30.3459 368.003 30.3635C358.402 30.3635 348.784 30.3635 339.165 30.3635C339.165 29.0968 339.147 27.7599 339.147 26.3877Z" fill="#080700"/>
<path d="M403.629 295.349C407.146 284.055 413.3 274.239 420.316 264.81L428.124 258.231C428.563 257.896 429.038 257.65 429.355 257.844C430.146 258.283 429.935 259.005 429.689 259.691C420.005 268.521 412.427 279.414 407.515 291.567C406.724 293.537 406.196 295.543 403.629 295.349Z" fill="#41579F"/>
<path d="M429.689 259.691L428.124 258.231C437.796 249.008 449.932 242.788 463.064 240.322C464.822 239.83 465.227 240.322 464.523 241.993C451.388 244.878 440.345 251.915 429.689 259.691Z" fill="#8788B2"/>
<path d="M72.0954 263.121C72.0954 262.312 72.0954 261.503 72.0954 260.694C78.1998 254.95 85.368 250.456 93.1965 247.464C94.955 246.55 95.166 247.464 94.955 248.96C86.5849 252.601 79.5512 258.196 72.0954 263.121Z" fill="#6D79B2"/>
<path d="M94.8319 248.96L93.0734 247.464C99.0716 243.417 106.207 241.395 113.436 241.694L94.8319 248.96Z" fill="#9C96B4"/>
<path d="M524.45 429.962C523.835 429.311 523.237 428.643 522.692 427.992L536.882 423.471C533.652 427.058 529.239 429.362 524.45 429.962Z" fill="#A18314"/>
<path d="M464.523 241.993L463.064 240.322C467.143 237.068 471.856 239.654 476.076 237.455L476.445 239.759L464.523 241.993Z" fill="#D0B481"/>
<path d="M38.7909 307.241C39.3209 307.237 39.8504 307.279 40.3734 307.365C38.9139 311.833 38.615 316.724 35.4147 320.523C35.1131 315.851 36.2947 311.202 38.7909 307.241Z" fill="#535997"/>
<path d="M174.242 553.967L143.523 559.245L195.607 450.932C199.634 451.987 200.548 455.629 201.902 458.76C204.223 464.126 206.562 469.491 208.936 474.857C214.809 488.613 226.52 492.448 239.269 484.69C243.7 481.981 247.674 481.665 251.173 485.201C264.889 499.028 282.544 499.028 300.058 499.591C331.815 500.629 363.537 502.529 395.276 504.217C403.453 504.64 411.559 503.25 419.613 501.948C424.044 501.227 426.33 497.884 428.634 494.313C431.711 489.546 433.065 483.336 439.096 480.82C452.583 506.223 466.088 531.608 480.718 559.157L437.109 551.663C431.078 549.34 427.28 544.362 423.622 539.542C421.721 536.963 419.325 534.788 416.575 533.145C413.824 531.502 410.774 530.423 407.603 529.972C395.294 527.773 382.879 525.556 370.676 522.618C349.135 517.429 327.63 521.932 306.195 522.742C290.246 523.34 274.209 524.008 258.225 525.081C244.017 526.031 229.773 527.685 215.477 527.351C209.147 527.192 204.593 530.746 200.074 534.634C191.844 541.618 184.283 549.464 174.242 553.967Z" fill="#010202"/>
<path d="M439.008 480.785C438.614 481.217 438.282 481.703 438.024 482.228C430.779 506.68 411.823 507.56 391.126 506.293C354.745 504.059 318.328 501.649 281.911 501.139C268.705 500.945 259.983 494.7 251.015 487.611C246.32 483.881 243.524 483.213 238.812 487.611C230.67 495.298 213.262 490.619 208.707 480.24C204.417 470.406 199.915 460.642 195.59 450.844C196.522 446.516 199.88 447.642 202.623 447.941C257.721 454.098 312.771 460.285 367.775 466.501C388.876 468.875 410.082 471.268 431.271 473.432C436.089 473.977 438.973 475.631 439.008 480.785Z" fill="white"/>
<path d="M174.242 553.967C184.318 545.171 194.429 536.375 204.47 527.579C206.455 525.875 208.992 524.95 211.609 524.976C256.976 522.707 302.344 520.173 347.729 518.097C367.722 517.2 386.59 524.818 406.196 527.034C410.234 527.379 414.14 528.638 417.619 530.717C421.098 532.796 424.059 535.639 426.277 539.032C429.636 543.427 433.222 547.643 437.021 551.663C418.277 549.904 399.549 548.144 380.752 546.543C334.825 542.717 288.66 542.717 242.733 546.543C219.803 548.443 197.067 551.452 174.242 553.967Z" fill="white"/>
<path d="M422.638 313.135C422.638 276.016 455.555 249.593 491.99 257.562C525.048 264.81 548.875 293.027 548.963 325.062C549.068 359.7 521.496 385.121 486.908 382.288C451.704 379.456 422.725 348.318 422.638 313.135Z" fill="white"/>
<path d="M193.427 313.258C193.427 355.883 151.963 389.8 110.869 380.916C82.7339 374.847 65.1497 350.201 67.2246 319.802C69.915 279.833 112.223 248.696 151.049 258.107C176.634 264.317 193.427 286.184 193.427 313.258Z" fill="white"/>
<path d="M450.403 307.752C452.091 307.714 453.769 308.012 455.341 308.627C456.913 309.242 458.348 310.162 459.563 311.335C460.777 312.508 461.748 313.909 462.418 315.459C463.088 317.009 463.445 318.676 463.468 320.365C463.468 326.997 459.951 330.498 453.304 330.639C446.658 330.779 440.151 325.009 440.327 318.324C440.503 311.639 444.512 308.561 450.403 307.752Z" fill="#0D0D0E"/>
<path d="M158.258 330.727C151.488 330.551 148.341 326.522 148.147 320.259C147.936 313.733 154.706 307.312 161.195 307.857C167.683 308.402 171.253 311.71 171.13 318.518C171.156 320.186 170.835 321.841 170.189 323.378C169.542 324.916 168.583 326.302 167.374 327.45C166.164 328.597 164.729 329.481 163.16 330.045C161.591 330.609 159.922 330.841 158.258 330.727Z" fill="#0F0F10"/>
</g>
<defs>
<clipPath id="clip0_21_64">
<rect width="611" height="611" fill="white"/>
</clipPath>
</defs>
</svg>
