<svg width="611" height="611" viewBox="0 0 611 611" fill="none" xmlns="http://www.w3.org/2000/svg">
<g clip-path="url(#clip0_1_7)">
<path d="M610.384 478.601C610.56 501.468 613.356 524.599 605.426 547.008C598.939 565.412 586.986 581.393 571.167 592.811C555.349 604.229 536.42 610.539 516.917 610.894C507.88 611.035 498.825 610.771 489.788 610.683C455.274 603.647 424.874 587.113 395.283 568.996C367.38 551.916 341.113 532.585 317.746 509.489C308.497 500.342 307.46 500.694 297.597 508.381C242.212 551.634 182.011 586.005 114.741 607.306C109.133 609.065 103.19 608.713 97.6514 610.631C45.5201 612.231 1.17775 570.174 0.193142 518.055C-0.0178447 506.112 0.404129 494.151 0.527204 482.207C3.77992 481.451 6.18868 483.21 8.43921 485.057C48.7553 518.302 95.4712 535.276 147.11 539.779C150.187 540.043 153.422 540.043 155.778 541.186C133.818 536.243 113.968 525.496 95.7174 511.705C68.3946 491.002 50.1794 463.527 38.6806 431.513C25.494 394.733 21.4676 356.44 22.9973 317.725C24.6922 276.876 31.1355 236.364 42.1971 197.006C42.7985 195.364 42.9562 193.592 42.6542 191.87C32.8082 196.373 24.0171 202.283 14.804 207.454C10.3557 209.952 6.29417 213.839 0.456875 212.731C0.456875 202.177 0.456875 191.588 0.456875 180.964C4.81727 172.433 12.5007 166.892 19.0237 160.226C33.5668 145.763 44.4107 128.005 50.6366 108.459C56.6673 89.497 55.9112 62.7253 48.0695 46.1381C41.6169 55.1617 33.7224 61.8458 25.828 68.6003C20.2545 73.244 14.6633 77.9229 8.79085 82.2324C6.54033 83.8859 4.41288 86.4012 1.03709 84.8005C6.6634 36.622 46.2762 0.281437 94.68 0.193488C235.197 -0.064496 375.709 -0.064496 516.214 0.193488C539.203 0.361506 561.359 8.826 578.608 24.0308C595.858 39.2356 607.041 60.1587 610.103 82.9536C610.053 83.8169 609.844 84.6637 609.488 85.4514C605.479 86.2253 603 83.3054 600.292 81.3177C588.012 72.4154 576.629 62.3356 566.306 51.2216C562.42 47 560.802 47.4749 559.273 52.9805C549.901 85.4865 558.007 114.668 576.187 141.739C584.351 154.198 594.29 165.398 605.69 174.984C607.712 176.658 609.329 178.769 610.419 181.158C610.419 191.641 610.461 202.13 610.543 212.626C606.323 213.945 603.316 211.201 599.993 209.424C589.444 203.69 579.404 197.287 568.978 191.342C566.763 193.787 568.503 195.986 568.978 197.973C582.206 248.034 587.416 299.875 584.415 351.568C581.479 400.45 569.136 446.711 537.031 485.549C516.038 510.949 489.559 528.398 458.386 538.952C455.289 540.029 452.046 540.622 448.769 540.711C470.201 537.51 491.88 535.944 512.821 529.594C544.84 520.158 574.631 504.365 600.415 483.157C603.387 480.888 606.024 477.915 610.384 478.601Z" fill="#3F4999"/>
<path d="M97.7044 610.631C116.517 603.595 135.946 598.458 154.495 590.666C207.258 568.425 256.604 538.814 301.06 502.717C306.88 498.021 309.535 499.023 314.335 503.632C357.113 544.616 405.341 577.509 460.408 599.813C470.114 603.735 480.03 607.113 489.841 610.754C476.988 610.859 464.153 611.053 451.301 611.053H136.719C133.801 611.053 130.882 610.93 127.928 610.859C127.155 607.957 125.185 607.341 122.654 608.168C118.504 609.399 114.073 609.259 109.959 610.754L97.7044 610.631Z" fill="#EB569A"/>
<path d="M610.385 478.601C579.159 504.705 544.609 524.493 504.803 534.344C485.379 539.299 465.384 541.664 445.34 541.38C454.131 538.073 463.221 535.17 471.854 531.371C527.203 507.009 559.044 463.351 573.655 405.955C585.207 360.644 584.785 314.735 579.563 268.614C576.258 240.591 570.851 212.855 563.387 185.643L610.508 212.661C610.613 235.106 610.807 257.568 610.824 280.012C610.824 342.703 610.824 405.404 610.824 468.118C610.824 471.618 610.525 475.101 610.385 478.601Z" fill="#FFD009"/>
<path d="M0.509905 212.837L47.6654 185.872C41.5159 207.001 36.5558 228.459 32.8085 250.145C23.3844 307.048 20.5009 363.916 37.415 419.992C55.5247 480.097 94.2056 520.43 154.636 539.128C156.499 539.708 158.275 540.5 162.214 541.995C148.869 542.699 137.897 540.922 126.891 539.515C115.93 538.022 105.089 535.747 94.4518 532.708C59.2873 523.016 28.6591 505.092 0.580234 482.295C0.439576 479.674 0.175842 477.018 0.175842 474.45C0.175842 389.562 0.175842 304.679 0.175842 219.802C0.175842 217.393 0.386829 215.071 0.509905 212.837Z" fill="#FFD009"/>
<path d="M610.385 181.175C583.923 160.067 563.387 134.72 555.598 100.79C551.009 80.9308 553.383 61.6523 560.627 41.5471C575.136 58.1085 591.575 72.8718 609.593 85.5217C610.136 86.8519 610.503 88.2475 610.683 89.6729C610.625 120.185 610.525 150.686 610.385 181.175Z" fill="#FFD009"/>
<path d="M1.03731 84.8005C19.1118 73.0505 34.7249 58.4158 49.7752 41.5647C60.1136 70.5528 59.4279 97.8522 46.6456 124.694C35.9029 147.244 19.6393 165.344 0.527429 180.982C0.210949 148.915 -0.703327 116.849 1.03731 84.8005Z" fill="#FFD009"/>
<path d="M109.906 610.683C115.005 608.924 120.087 607.042 125.185 605.283C126.803 604.72 128.702 604.07 129.897 605.793C131.656 608.238 128.93 609.311 127.963 610.789L109.906 610.683Z" fill="#FDC62B"/>
<path d="M169.668 295.175C137.634 294.137 109.361 283.706 86.2408 260.875C84.7928 259.441 83.4474 257.907 82.2145 256.284C62.874 231.236 72.0871 206.751 103.313 202.248C141.519 196.742 174.767 208.862 202.407 235.264C213.22 245.554 221.536 258.57 215.101 274.401C208.666 290.232 193.615 293.486 178.407 295.14C175.497 295.31 172.58 295.321 169.668 295.175Z" fill="#EB569A"/>
<path d="M440.734 295.263C430.776 295.691 420.858 293.776 411.776 289.669C395.196 282.088 389.763 267.013 397.569 250.514C402.596 240.263 410.23 231.516 419.705 225.15C446.694 206.223 476.197 196.32 509.375 202.283C538.631 207.56 547.563 230.708 529.893 254.577C526.646 259.064 522.861 263.134 518.623 266.697C496.674 284.823 469.193 294.902 440.734 295.263Z" fill="#EB569A"/>
<path d="M522.983 138.96C522.421 138.96 521.717 139.118 521.225 138.836C492.775 120.248 461.686 106.058 429.006 96.744C423.503 90.957 415.996 89.9016 412.69 94.4397C401.162 92.8598 389.504 92.4532 377.895 93.226C370.071 93.5954 362.071 94.3518 354.598 91.3439C345.209 87.6149 342.115 80.1568 345.807 70.5C348.568 73.0329 346.827 76.463 347.689 79.0662C345.438 76.7972 351.205 72.5052 345.737 70.588C346.159 63.6576 350.66 59.0314 355.179 54.6164C367.908 42.1276 382.818 33.8428 400.787 31.7496C405.815 36.1647 411.336 31.8903 417.49 33.3855C415.486 31.6265 413.974 31.3802 413.182 30.1489C432.101 26.7717 449.63 32.1542 466.58 39.366C489.12 48.9349 506.456 64.4667 517.023 86.8585C518.236 89.4267 520.117 91.9068 519.414 95.0906C513.137 94.088 514.755 87.439 510.852 84.1497C514.368 87.6677 513.085 94.0176 519.326 94.9674C527.273 109.039 526.975 124.448 526.359 139.857C526.359 141.123 525.99 141.106 522.843 138.872C523.177 133.595 522.597 128.511 522.843 123.34C522.667 128.634 523.089 133.823 522.983 138.96Z" fill="#EB569A"/>
<path d="M181.765 30.2545C196.19 27.5625 211.101 29.7988 224.103 36.6044C220.78 38.5745 217.439 36.8507 215.206 36.7275C212.974 36.6044 213.993 38.4865 213.8 37.3432C213.8 36.9738 213.993 36.921 214.521 36.8683C219.004 36.323 222.767 40.3862 227.391 38.8559C227.391 38.8559 227.391 38.3106 227.391 38.0292C237.175 39.8216 245.87 45.3705 251.619 53.4906C250.441 59.6999 257.509 61.0894 258.846 65.8035C259.813 65.1175 259.197 63.7631 260.024 63.0243C268.217 72.945 267.76 82.0565 258.74 88.5823C253.782 85.7328 249.421 91.4847 246.556 90.1654C246.872 90.1654 249.808 89.0221 251.514 91.7837C247.259 94.6156 242.406 93.7889 237.94 93.3844C215.699 91.3263 193.985 94.3694 172.183 98.6613C170.319 98.2743 175.014 95.3192 171.321 96.0756C168.174 96.7264 164.693 96.6912 161.985 98.8724C165.273 97.5356 168.789 95.3896 172.306 98.503C159.242 103.692 146.284 109.162 132.658 112.786C132.663 111.925 132.953 111.089 133.484 110.411C129.511 111.66 125.396 112.68 122.935 116.497C123.429 116.796 123.879 117.163 124.271 117.588C116.412 122.144 109.203 127.966 100.043 129.901C95.6473 127.368 93.6957 132.487 90.232 132.891C89.1243 133.208 91.2518 134.21 90.6364 133.225C90.5133 132.997 90.7771 132.944 91.3573 132.768C92.1267 132.397 92.9877 132.259 93.8343 132.372C94.6809 132.484 95.4761 132.842 96.1221 133.401L83.164 142.724C82.9002 129.672 81.4057 118.204 86.5046 107.263C87.3837 108.072 87.5771 109.69 88.2628 110.095C89.3002 110.71 89.1243 109.057 89.3881 108.424C90.2496 106.278 90.2144 103.85 91.4979 101.827C89.4936 103.393 90.6364 107.755 86.4694 107.351C91.4276 78.5913 107.779 58.0464 133.625 44.7661C139.093 45.6808 142.205 44.1504 145.159 39.1022C152.522 34.7747 160.809 32.2606 169.334 31.7672C174.099 35.6546 178.97 32.5588 183.805 32.0135C183.541 30.9581 182.117 31.2219 181.765 30.2545Z" fill="#EB569A"/>
<path d="M310.256 358.305C295.184 358.535 280.177 356.271 265.843 351.603C252.27 347.047 245.747 334.857 249.738 322.07C253.588 309.757 266.529 303.723 280.19 307.839C310.977 317.109 338.845 313.591 362.387 289.634C364.43 287.431 366.894 285.66 369.633 284.428C372.373 283.196 375.332 282.528 378.335 282.462C381.338 282.397 384.323 282.935 387.114 284.046C389.905 285.158 392.444 286.818 394.58 288.93C403.987 298.024 404.321 311.639 394.809 321.894C377.909 340.345 355.255 352.518 330.546 356.423C323.091 357.689 315.566 358.832 310.256 358.305Z" fill="#EA569A"/>
<path d="M210.6 225.449C187.743 204.218 160.262 193.048 129.722 188.704C127.963 185.344 129.616 182.459 131.04 179.592C141.941 157.552 168.789 145.362 192.385 151.747C215.611 158.027 229.307 183.902 221.94 208.158C219.901 214.824 218.987 222.722 210.6 225.449Z" fill="white"/>
<path d="M484.988 188.211C472.54 190.709 459.951 192.433 447.872 196.725C430.958 202.723 416.224 212.292 402.317 223.285C398.642 222.511 397.464 219.327 396.04 216.548C379.671 184.447 403.811 148.669 435.863 150.305C457.736 151.413 472.575 161.193 483.23 179.17C484.812 181.791 486.5 184.693 484.988 188.211Z" fill="white"/>
<path d="M210.6 225.449C222.714 209.759 225.756 192.521 216.859 174.685C208.596 158.15 194.002 151.501 175.629 152.504C155.269 153.594 137.212 167.684 129.722 188.704L117.309 187.842C116.008 185.063 117.309 182.67 118.627 180.454C137.722 149.9 178.407 132.961 212.587 153.26C233.035 165.45 243.444 190.005 238.556 214.438C236.75 223.025 233.744 231.316 229.624 239.063C229.314 239.89 228.769 240.608 228.057 241.13C227.345 241.652 226.497 241.954 225.615 242.001C218.653 238.237 216.349 230.268 210.6 225.449Z" fill="#EA5699"/>
<path d="M225.615 241.948C234.547 226.223 240.085 209.583 236.411 191.377C230.028 159.716 200.314 140.93 167.453 148.071C144.596 153.067 127.418 166.259 117.309 187.842L108.518 188.475C115.181 163.673 140.957 143.621 169.458 139.223C196.692 135.072 223.628 147.491 236.815 170.129C250.986 194.455 247.769 225.713 227.901 251.781C226.072 248.491 223.382 246.011 225.615 241.948Z" fill="#FECF19"/>
<path d="M393.033 233.593C391.609 236.425 390.343 239.38 387.758 241.403C378.018 235.035 377.209 224.464 375.89 214.561C374.889 206.745 375.39 198.811 377.367 191.184C385.49 155.582 410.492 139.857 437.428 138.96C472.856 137.799 504.61 159.047 515.159 191.078L505.946 188.493C502.131 185.661 499.792 181.58 496.962 177.939C478.94 154.456 455.397 144.87 426.228 151.026C397.763 157.007 380.884 189.952 389.851 220.999C391.081 225.15 393.297 229.055 393.033 233.593Z" fill="#FFCF18"/>
<path d="M393.033 233.593C380.726 212.063 383.011 183.796 398.677 165.696C414.782 147.139 442.844 141.352 467.758 151.853C484.762 158.646 498.461 171.784 505.964 188.493L484.988 188.141C476.619 166.4 458.896 153.031 437.797 152.504C405.147 151.712 384.541 180.982 396.321 211.553C398.094 215.543 400.078 219.436 402.264 223.215L393.033 233.593Z" fill="#E95699"/>
<path d="M283.478 235.704L328.014 237.181C328.647 237.797 329.473 238.553 329.262 239.362C325.939 252.238 323.513 265.448 315.689 276.705C308.914 277.508 302.048 276.958 295.487 275.087C289.298 262.563 283.074 250.11 283.478 235.704Z" fill="#FFCF0E"/>
<path d="M295.663 273.68C302.362 274.348 309.025 275.439 315.777 274.489C317.323 274.017 318.896 273.641 320.489 273.363C327.079 272.912 333.689 272.847 340.286 273.17C343.381 273.17 346.757 273.082 348.673 276.406C333.482 287.998 315.865 284.005 298.792 284.709C284.867 285.272 272.419 283.126 262.01 273.328C262.274 270.215 264.771 270.848 266.494 270.989C274.722 271.657 282.986 270.778 291.197 271.745C292.766 272.185 294.269 272.836 295.663 273.68Z" fill="#0F0B0E"/>
<path d="M292.34 273.645L261.975 273.328C262.45 264.832 268.305 258.676 271.575 251.394C273.843 246.381 276.692 241.614 279.276 236.741C279.874 236.741 280.7 236.741 280.876 237.111C286.274 248.808 291.373 260.576 292.34 273.645Z" fill="#FECE13"/>
<path d="M348.673 276.406L319.346 274.964C320.823 262.651 323.513 250.796 331.53 240.84C336.805 250.62 342.185 260.365 347.354 270.197C348.339 272.044 350.519 273.874 348.673 276.406Z" fill="#FECF14"/>
<path d="M377.332 191.184C376.119 208.879 377.895 225.976 387.723 241.403C386.756 243.426 385.772 245.448 384.049 249.001C374.255 229.547 369.86 211.078 377.332 191.184Z" fill="#1F1915"/>
<path d="M413.182 30.1841C416.189 31.521 422.22 28.7066 422.114 32.4356C421.991 36.9914 416.031 34.6344 412.655 35.3204C409.257 36.0367 405.804 36.4662 402.334 36.6044C396.708 36.8331 398.325 34.3705 400.787 31.7848L413.182 30.1841Z" fill="#F4A869"/>
<path d="M412.725 94.4046C412.989 92.1355 408.927 92.1003 410.035 89.7257C411.143 87.351 413.552 88.5472 415.31 88.899C420.075 89.7609 424.839 90.6579 429.604 91.643C431.028 91.9244 432.769 92.3993 432.786 93.9296C432.786 96.0932 430.378 95.8997 428.989 96.7088L412.725 94.4046Z" fill="#FABA4F"/>
<path d="M292.34 273.645C287.962 261.332 285.307 248.474 279.294 236.706C280.173 234.367 281.245 232.819 283.461 235.598C287.54 248.274 291.607 260.957 295.663 273.645H292.34Z" fill="#E36292"/>
<path d="M331.53 240.84C326.098 251.728 323.179 263.513 319.346 274.964L315.83 274.489L328.137 237.111C331.478 236.214 331.425 238.588 331.53 240.84Z" fill="#E36191"/>
<path d="M181.765 30.2545C184.772 31.3802 188.534 29.3222 192.314 32.6467C184.121 35.7425 176.49 35.7249 168.983 35.9184C165.466 35.9184 168.315 33.192 169.352 31.7672L181.765 30.2545Z" fill="#F8B25A"/>
<path d="M124.148 117.641C122.038 116.656 119.7 119.4 116.975 116.568C123.339 111.449 130.706 108.969 138.636 105.891C138.794 111.08 133.959 110.341 132.588 112.927L124.148 117.641Z" fill="#FBC142"/>
<path d="M251.426 91.8189C247.013 91.1153 242.353 92.7159 235.866 89.796C244.059 87.1927 250.951 87.3862 256.964 84.5191C259.004 83.5341 259.988 86.3836 258.617 88.6527L251.426 91.8189Z" fill="#F9BE44"/>
<path d="M145.159 39.1022H150.996L151.735 40.5445C145.37 43.9042 139.04 47.299 132.623 50.5531C132.201 50.7818 130.724 50.0606 130.601 49.5681C130.003 47.088 132.482 46.3492 133.607 44.7837L145.159 39.1022Z" fill="#F5B160"/>
<path d="M259.988 63.0595C259.865 65.0823 263.188 67.5977 259.865 68.9521C257.544 69.902 257.122 66.7006 255.909 65.311C253.465 62.4966 251.074 59.6647 248.753 56.7624C247.646 55.3904 244.569 54.3877 246.38 52.2066C247.962 50.3069 249.738 53.1213 251.654 53.4555L259.988 63.0595Z" fill="#FBC045"/>
<path d="M95.999 133.524C91.6034 132.557 89.4584 137.711 83.1464 137.605C87.3547 131.969 93.2876 127.862 100.043 125.908C103.208 125.099 100.342 128.511 99.9198 130.024L95.999 133.524Z" fill="#FBC045"/>
<path d="M227.356 38.0292C228.534 39.4188 231.734 39.7882 230.503 42.3915C229.466 44.5726 227.391 42.8136 225.914 42.3035C220.27 40.3862 214.697 38.3106 207.347 35.6546C214.38 33.579 219.145 36.1295 224.068 36.5868L227.356 38.0292Z" fill="#FBBF47"/>
<path d="M336.752 529.559C337.792 530.008 338.792 530.543 339.741 531.16C346.176 536.12 352.594 541.081 358.941 546.129C360.207 547.149 362.106 548.31 360.858 550.35C359.346 552.795 357.341 551.775 355.583 550.491C348.96 545.32 342.373 540.101 335.821 534.836C334.695 533.921 333.623 532.708 334.449 531.142C334.889 530.491 335.821 530.175 336.752 529.559Z" fill="#FECA2C"/>
<path d="M231.54 560.746C231.066 561.326 230.661 562.223 229.976 562.61C222.398 566.955 214.802 571.265 207.119 575.469C206.771 575.736 206.37 575.924 205.942 576.019C205.514 576.114 205.07 576.114 204.642 576.018C204.214 575.923 203.813 575.734 203.466 575.466C203.119 575.197 202.835 574.856 202.635 574.466C201.879 572.918 203.163 571.634 204.393 570.948C211.989 566.638 219.584 562.329 227.25 558.248C229.307 557.175 231.435 557.457 231.54 560.746Z" fill="#FECA2B"/>
<path d="M182.38 586.304C182.078 587.121 181.588 587.856 180.95 588.448C180.311 589.041 179.543 589.476 178.706 589.716C171.814 592.724 164.886 595.679 158.029 598.758C155.779 599.76 153.37 600.939 152.139 597.966C151.049 595.345 153.897 594.659 155.515 593.903C162.548 590.666 169.809 587.57 177 584.527C179.18 583.595 181.537 582.856 182.38 586.304Z" fill="#FECA29"/>
<path d="M275.513 526.622C276.485 527.29 277.376 528.069 278.168 528.943C278.32 529.195 278.417 529.476 278.453 529.768C278.49 530.059 278.465 530.355 278.381 530.637C278.296 530.918 278.154 531.179 277.963 531.402C277.772 531.626 277.537 531.807 277.272 531.934C269.852 537.07 262.415 542.189 254.89 547.149C254.391 547.379 253.848 547.498 253.298 547.498C252.749 547.498 252.206 547.379 251.707 547.149C251.444 547.013 251.217 546.817 251.043 546.578C250.869 546.338 250.754 546.061 250.706 545.769C250.658 545.477 250.679 545.177 250.768 544.895C250.856 544.612 251.009 544.354 251.215 544.141C259.127 538.249 267.25 532.567 275.513 526.622Z" fill="#FECA2B"/>
<path d="M408.048 579.725C407.451 581.783 406.026 583.243 404.233 582.118C396.268 577.456 388.409 572.584 380.638 567.659C380.305 567.511 380.013 567.284 379.787 566.998C379.561 566.713 379.407 566.376 379.34 566.018C379.273 565.66 379.293 565.291 379.4 564.942C379.506 564.594 379.696 564.277 379.952 564.018C380.365 563.665 380.859 563.419 381.389 563.303C381.92 563.186 382.471 563.202 382.994 563.349C390.941 568.028 398.818 572.848 406.624 577.72C407.292 578.125 407.609 579.092 408.048 579.725Z" fill="#FECB27"/>
<path d="M457.964 604.228C457.402 607.201 455.556 607.517 453.41 606.567C445.721 603.178 438.067 599.713 430.448 596.172C428.831 595.415 427.371 594.219 428.338 592.109C428.446 591.838 428.607 591.592 428.811 591.384C429.015 591.177 429.258 591.012 429.526 590.899C429.795 590.786 430.083 590.727 430.374 590.727C430.665 590.726 430.953 590.783 431.222 590.895C439.72 594.624 448.171 598.423 456.575 602.293C457.226 602.61 457.542 603.63 457.964 604.228Z" fill="#FECB26"/>
<path d="M315.232 516.244C314.247 515.61 313.016 515.206 312.419 514.344C308.674 509.067 305.016 510.333 301.096 514.133C300.181 515.03 298.828 516.384 297.403 514.977C295.979 513.57 296.911 511.952 298.054 510.509C304.419 502.453 311.311 502.594 316.726 510.896C317.57 512.18 318.326 513.412 317.5 514.819C317.148 515.382 316.146 515.716 315.232 516.244Z" fill="#FDC832"/>
<path d="M471.38 107.298C464.962 105.539 458.527 103.674 452.039 101.81C451.755 101.769 451.483 101.665 451.244 101.507C451.004 101.348 450.803 101.139 450.653 100.894C450.504 100.649 450.41 100.373 450.379 100.088C450.348 99.8022 450.381 99.5134 450.474 99.2418C450.914 97.5707 452.232 96.6561 453.727 97.3245C459.81 100.262 466.966 100.79 471.38 107.298Z" fill="#FCC240"/>
<path d="M510.553 127.403C501.533 124.888 495.819 121.37 489.841 118.01C489.533 117.756 489.295 117.426 489.151 117.054C489.006 116.681 488.959 116.278 489.015 115.882C489.07 115.591 489.199 115.319 489.388 115.091C489.577 114.863 489.82 114.687 490.095 114.578C490.371 114.469 490.669 114.432 490.962 114.469C491.256 114.506 491.536 114.617 491.775 114.791C497.577 118.239 504.293 120.156 510.553 127.403Z" fill="#FBC143"/>
<path d="M391.046 89.1276C383.85 91.4224 376.161 91.6902 368.822 89.9016C376.154 87.9491 383.504 86.5595 391.046 89.1276Z" fill="#FECE22"/>
<path d="M345.807 70.6407C348.286 69.9019 347.565 66.2609 351.645 65.6804C351.645 72.1886 346.651 79.2597 352.19 85.5041C343.979 82.9712 346.405 76.1287 345.878 70.5528L345.807 70.6407Z" fill="#FABA50"/>
<path d="M441.173 34.0363C448.611 35.2676 455.977 36.7627 462.694 40.2807C462.448 41.1602 462.202 42.0397 461.938 42.9192L440.277 36.4989L441.173 34.0363Z" fill="#FAB851"/>
<path d="M519.397 94.985C518.693 96.8671 518.096 100.93 515.599 96.9551C512.176 91.0804 509.489 84.8064 507.599 78.2747C514.632 81.7927 514.456 90.3413 519.484 95.1609L519.397 94.985Z" fill="#FCC43C"/>
<path d="M382.15 42.4266L363.319 53.7017L362 51.4678C367.82 46.5954 373.833 42.0221 381.464 40.1224L382.15 42.4266Z" fill="#FCC53C"/>
<path d="M522.983 138.96C519.572 131.677 521.964 124.096 522.016 116.638C524.935 123.938 526.728 131.29 522.895 138.872L522.983 138.96Z" fill="#FCC436"/>
<path d="M495.537 64.9416L477.744 50.8698C484.848 54.0711 492.795 56.0588 495.537 64.9416Z" fill="#FCC23B"/>
<path d="M219.778 90.8338L196.569 91.9596L196.341 89.1452C203.878 87.3072 211.642 86.5666 219.391 86.9465C219.532 88.2481 219.672 89.5322 219.778 90.8338Z" fill="#F9B757"/>
<path d="M86.3112 107.474C89.9331 104.202 88.0694 97.9225 94.9089 93.5779L88.6672 118.925C84.8343 114.492 87.4716 110.605 86.3815 107.386L86.3112 107.474Z" fill="#FBC043"/>
<path d="M172.306 98.503C166.556 97.3597 161.757 102.513 153.352 100.842C160.922 96.4982 169.298 93.7449 177.967 92.7511C178.442 98.1512 172.992 95.5831 172.218 98.5734L172.306 98.503Z" fill="#FBC046"/>
<path d="M118.61 60.808L104.087 77.7998C104.725 73.9236 106.227 70.241 108.483 67.0253C110.738 63.8096 113.689 61.1435 117.115 59.2249L118.61 60.808Z" fill="#FCC33E"/>
<path d="M305.456 339.22C296.841 339.73 286.221 337.812 275.777 335.051C272.507 334.189 266.986 334.048 268.621 328.472C270.098 323.371 274.546 326.238 277.5 327.048C297.034 332.324 316.603 333.116 336.155 327.575C350.24 323.591 362.994 315.886 373.077 305.271C375.556 302.686 378.352 299.484 381.693 303.336C384.682 306.854 380.866 309.141 378.756 311.252C359.187 330.9 335.24 339.624 305.456 339.22Z" fill="#17040C"/>
<path d="M198.679 207.648C192.965 207.648 189.783 205.625 189.572 200.612C189.343 194.719 192.596 191.412 198.363 190.867C203.251 190.427 206.275 192.925 206.433 197.78C206.714 203.602 203.585 206.944 198.679 207.648Z" fill="#0D0E0E"/>
<path d="M413.727 207.648C409.138 207.437 405.833 204.13 405.534 198.484C405.27 193.717 408.418 190.832 413.182 190.885C414.432 190.802 415.685 190.984 416.859 191.417C418.034 191.851 419.105 192.526 420.002 193.4C420.899 194.274 421.602 195.327 422.066 196.491C422.53 197.655 422.744 198.903 422.694 200.155C422.835 204.658 420.215 207.736 413.727 207.648Z" fill="#121213"/>
</g>
<defs>
<clipPath id="clip0_1_7">
<rect width="611" height="611" fill="white"/>
</clipPath>
</defs>
</svg>
