<svg width="148" height="61" viewBox="0 0 148 61" fill="none" xmlns="http://www.w3.org/2000/svg">
<path d="M0 42.7C3.45017 42.7 5.17526 37.8323 5.17526 28.097V14.7879C5.17526 5.0936 3.45017 0.246465 0 0.246465V0H16.4391V0.246465C12.9889 0.246465 11.2638 5.0936 11.2638 14.7879V42.2071H16.5608C19.321 42.2071 21.7158 41.2623 23.7453 39.3727C25.8154 37.4832 26.8505 35.3266 26.8505 32.903H27.094V42.9465H0V42.7Z" fill="#3F4999"/>
<path d="M45.4847 8.07172C47.7578 8.07172 49.9293 8.54411 51.9994 9.48889C54.0696 10.4337 55.8555 11.7071 57.3574 13.3091C58.8592 14.87 60.0363 16.7596 60.8887 18.9778C61.7817 21.1549 62.2282 23.4552 62.2282 25.8788C62.2282 30.8081 60.5843 35.0185 57.2965 38.5101C54.0493 41.9606 50.112 43.6859 45.4847 43.6859C40.8574 43.6859 36.8999 41.9606 33.6121 38.5101C30.3648 35.0185 28.7412 30.8286 28.7412 25.9404C28.7412 21.0111 30.3648 16.8007 33.6121 13.3091C36.8999 9.81751 40.8574 8.07172 45.4847 8.07172ZM38.4829 37.9556C40.4312 41.2828 42.7652 42.9465 45.4847 42.9465C48.2449 42.9465 50.5788 41.2828 52.4865 37.9556C54.4349 34.6283 55.409 30.6027 55.409 25.8788C55.409 21.1549 54.4349 17.1293 52.4865 13.802C50.5788 10.4747 48.2449 8.81111 45.4847 8.81111C42.7652 8.81111 40.4312 10.4747 38.4829 13.802C36.5752 17.1293 35.6213 21.1549 35.6213 25.8788C35.6213 30.6027 36.5752 34.6283 38.4829 37.9556Z" fill="#3F4999"/>
<path d="M79.6219 39.3727C82.0979 39.4549 84.2492 39.7424 86.0758 40.2354C87.9023 40.6872 89.323 41.2418 90.3377 41.899C91.3525 42.5562 92.144 43.3367 92.7123 44.2404C93.3211 45.1441 93.7067 45.9862 93.8691 46.7667C94.072 47.5471 94.1735 48.3892 94.1735 49.2929C94.1735 51.7987 93.4835 53.9552 92.1034 55.7626C90.7639 57.6111 89.0591 58.9461 86.989 59.7677C84.9189 60.5892 82.6662 61 80.2308 61C76.0094 61 72.4374 60.1168 69.5149 58.3505C66.5924 56.6253 65.1312 54.2222 65.1312 51.1414C65.1312 48.3482 66.836 45.8424 70.2456 43.6242C69.3932 43.2545 68.7234 42.7822 68.2363 42.2071C67.7898 41.632 67.5463 40.9747 67.5057 40.2354C67.4651 39.4549 67.8304 38.5923 68.6017 37.6475C69.4135 36.6616 70.6109 35.6963 72.1939 34.7515C70.0426 33.5192 68.3175 31.7939 67.0186 29.5758C65.7603 27.3576 65.1312 24.9545 65.1312 22.3667C65.1312 18.4643 66.4504 15.137 69.0887 12.3848C71.7677 9.59158 75.0149 8.15387 78.8304 8.07172C78.9116 7.90741 79.0131 7.7431 79.1348 7.57879C80.6773 5.11414 82.7677 3.20404 85.406 1.84848L86.2584 5.29899C83.0518 5.25791 80.8802 6.16162 79.7437 8.0101C79.7031 8.05118 79.6828 8.09226 79.6828 8.13333C83.3765 8.25657 86.5223 9.69427 89.12 12.4465C91.7178 15.1987 93.0167 18.5054 93.0167 22.3667C93.0167 24.9545 92.3875 27.337 91.1292 29.5141C89.9115 31.6912 88.227 33.4165 86.0758 34.6899C83.9245 35.9633 81.5905 36.6 79.0739 36.6C76.7603 36.6 74.5684 36.0455 72.4983 34.9364C70.7935 36.9492 71.1791 38.2431 73.6551 38.8182C74.7511 39.0646 76.74 39.2495 79.6219 39.3727ZM73.2289 12.6929C71.6459 15.363 70.8544 18.5875 70.8544 22.3667C70.8544 26.1458 71.6459 29.3704 73.2289 32.0404C74.8526 34.7104 76.8009 36.0455 79.0739 36.0455C81.347 36.0455 83.2953 34.7104 84.9189 32.0404C86.5425 29.3704 87.3544 26.1458 87.3544 22.3667C87.3544 19.8609 86.9687 17.5606 86.1975 15.4657C85.4669 13.3707 84.4724 11.7276 83.2141 10.5364C81.9559 9.30404 80.5758 8.68788 79.0739 8.68788C76.8009 8.68788 74.8526 10.0229 73.2289 12.6929ZM80.2308 60.3838C82.9909 60.3838 85.3857 59.5212 87.4152 57.796C89.4448 56.1118 90.4595 53.9347 90.4595 51.2646C90.4595 49.1286 89.6477 47.6704 88.0241 46.8899C86.4411 46.1505 83.5998 45.6165 79.5001 45.2879C75.2788 44.9593 72.4171 44.5074 70.9153 43.9323C69.86 45.37 69.1496 46.8694 68.7843 48.4303C68.419 50.0323 68.419 51.5316 68.7843 52.9283C69.1902 54.3249 69.86 55.5778 70.7935 56.6869C71.7271 57.837 73.0057 58.7407 74.6293 59.398C76.2935 60.0552 78.1607 60.3838 80.2308 60.3838Z" fill="#3F4999"/>
<path d="M105.855 6.40808C105.124 7.1064 104.252 7.45555 103.237 7.45555C102.222 7.45555 101.349 7.1064 100.619 6.40808C99.8882 5.66869 99.5229 4.78552 99.5229 3.75858C99.5229 2.69057 99.8882 1.80741 100.619 1.10909C101.349 0.369697 102.222 0 103.237 0C104.252 0 105.124 0.369697 105.855 1.10909C106.586 1.80741 106.951 2.69057 106.951 3.75858C106.951 4.78552 106.586 5.66869 105.855 6.40808ZM106.281 28.097C106.281 37.8323 108.006 42.7 111.456 42.7V42.9465H95.0173V42.7C98.4675 42.7 100.193 37.8323 100.193 28.097V23.6606C100.193 22.5926 100.172 21.6478 100.132 20.8263C100.091 20.0047 100.01 19.1215 99.8882 18.1768C99.7664 17.232 99.5838 16.431 99.3402 15.7737C99.0967 15.1165 98.7922 14.5003 98.4269 13.9253C98.0616 13.3502 97.5948 12.9189 97.0266 12.6313C96.4583 12.3438 95.7886 12.2 95.0173 12.2V11.9535C95.8291 11.9535 97.4731 11.6249 99.9491 10.9677C102.425 10.2694 104.455 9.55051 106.038 8.81111H106.281V28.097Z" fill="#3F4999"/>
<path d="M142.886 28.097C142.886 37.8323 144.59 42.7 148 42.7V42.9465H131.561V42.7C135.011 42.7 136.736 37.8323 136.736 28.097V17.0677C136.736 15.096 136.594 13.535 136.31 12.3848C136.066 11.1936 135.6 10.3104 134.91 9.73535C134.26 9.11919 133.367 8.81111 132.231 8.81111C130.404 8.81111 128.557 9.75589 126.69 11.6455C124.823 13.535 123.768 15.4862 123.524 17.499V28.097C123.524 37.8323 125.249 42.7 128.699 42.7V42.9465H112.26V42.7C115.71 42.7 117.436 37.8323 117.436 28.097V23.6606C117.436 22.5926 117.415 21.6478 117.375 20.8263C117.334 20.0047 117.253 19.1215 117.131 18.1768C117.009 17.232 116.827 16.431 116.583 15.7737C116.34 15.1165 116.035 14.5003 115.67 13.9253C115.305 13.3502 114.838 12.9189 114.269 12.6313C113.701 12.3438 113.031 12.2 112.26 12.2V11.9535C113.072 11.9535 114.716 11.6249 117.192 10.9677C119.668 10.2694 121.698 9.55051 123.281 8.81111H123.524V15.404C124.011 14.1717 124.742 13.001 125.716 11.8919C126.69 10.7418 127.786 9.81751 129.004 9.11919C130.262 8.42087 131.5 8.07172 132.718 8.07172C135.924 8.07172 138.421 8.87273 140.207 10.4747C141.993 12.0357 142.886 14.2333 142.886 17.0677V28.097Z" fill="#3F4999"/>
</svg>
