<svg width="122" height="50" viewBox="0 0 122 50" fill="none" xmlns="http://www.w3.org/2000/svg">
<path d="M0.35 34.8C3.18333 34.8 4.6 30.85 4.6 22.95V12.15C4.6 4.28333 3.18333 0.349999 0.35 0.349999V0.149999H13.85V0.349999C11.0167 0.349999 9.6 4.28333 9.6 12.15V34.4H13.95C16.2167 34.4 18.1833 33.6333 19.85 32.1C21.55 30.5667 22.4 28.8167 22.4 26.85H22.6V35H0.35V34.8ZM37.7027 6.7C39.5694 6.7 41.3527 7.08333 43.0527 7.85C44.7527 8.61666 46.2194 9.65 47.4527 10.95C48.6861 12.2167 49.6527 13.75 50.3527 15.55C51.0861 17.3167 51.4527 19.1833 51.4527 21.15C51.4527 25.15 50.1027 28.5667 47.4027 31.4C44.7361 34.2 41.5027 35.6 37.7027 35.6C33.9027 35.6 30.6527 34.2 27.9527 31.4C25.2861 28.5667 23.9527 25.1667 23.9527 21.2C23.9527 17.2 25.2861 13.7833 27.9527 10.95C30.6527 8.11666 33.9027 6.7 37.7027 6.7ZM31.9527 30.95C33.5527 33.65 35.4694 35 37.7027 35C39.9694 35 41.8861 33.65 43.4527 30.95C45.0527 28.25 45.8527 24.9833 45.8527 21.15C45.8527 17.3167 45.0527 14.05 43.4527 11.35C41.8861 8.65 39.9694 7.3 37.7027 7.3C35.4694 7.3 33.5527 8.65 31.9527 11.35C30.3861 14.05 29.6027 17.3167 29.6027 21.15C29.6027 24.9833 30.3861 28.25 31.9527 30.95ZM65.7367 32.1C67.7701 32.1667 69.5367 32.4 71.0367 32.8C72.5367 33.1667 73.7034 33.6167 74.5367 34.15C75.3701 34.6833 76.0201 35.3167 76.4867 36.05C76.9867 36.7833 77.3034 37.4667 77.4367 38.1C77.6034 38.7333 77.6867 39.4167 77.6867 40.15C77.6867 42.1833 77.1201 43.9333 75.9867 45.4C74.8867 46.9 73.4867 47.9833 71.7867 48.65C70.0867 49.3167 68.2367 49.65 66.2367 49.65C62.7701 49.65 59.8367 48.9333 57.4367 47.5C55.0367 46.1 53.8367 44.15 53.8367 41.65C53.8367 39.3833 55.2367 37.35 58.0367 35.55C57.3367 35.25 56.7867 34.8667 56.3867 34.4C56.0201 33.9333 55.8201 33.4 55.7867 32.8C55.7534 32.1667 56.0534 31.4667 56.6867 30.7C57.3534 29.9 58.3367 29.1167 59.6367 28.35C57.8701 27.35 56.4534 25.95 55.3867 24.15C54.3534 22.35 53.8367 20.4 53.8367 18.3C53.8367 15.1333 54.9201 12.4333 57.0867 10.2C59.2867 7.93333 61.9534 6.76667 65.0867 6.7C65.1534 6.56666 65.2367 6.43333 65.3367 6.3C66.6034 4.3 68.3201 2.75 70.4867 1.65L71.1867 4.45C68.5534 4.41667 66.7701 5.15 65.8367 6.65C65.8034 6.68333 65.7867 6.71667 65.7867 6.75C68.8201 6.85 71.4034 8.01666 73.5367 10.25C75.6701 12.4833 76.7367 15.1667 76.7367 18.3C76.7367 20.4 76.2201 22.3333 75.1867 24.1C74.1867 25.8667 72.8034 27.2667 71.0367 28.3C69.2701 29.3333 67.3534 29.85 65.2867 29.85C63.3867 29.85 61.5867 29.4 59.8867 28.5C58.4867 30.1333 58.8034 31.1833 60.8367 31.65C61.7367 31.85 63.3701 32 65.7367 32.1ZM60.4867 10.45C59.1867 12.6167 58.5367 15.2333 58.5367 18.3C58.5367 21.3667 59.1867 23.9833 60.4867 26.15C61.8201 28.3167 63.4201 29.4 65.2867 29.4C67.1534 29.4 68.7534 28.3167 70.0867 26.15C71.4201 23.9833 72.0867 21.3667 72.0867 18.3C72.0867 16.2667 71.7701 14.4 71.1367 12.7C70.5367 11 69.7201 9.66667 68.6867 8.7C67.6534 7.7 66.5201 7.2 65.2867 7.2C63.4201 7.2 61.8201 8.28333 60.4867 10.45ZM66.2367 49.15C68.5034 49.15 70.4701 48.45 72.1367 47.05C73.8034 45.6833 74.6367 43.9167 74.6367 41.75C74.6367 40.0167 73.9701 38.8333 72.6367 38.2C71.3367 37.6 69.0034 37.1667 65.6367 36.9C62.1701 36.6333 59.8201 36.2667 58.5867 35.8C57.7201 36.9667 57.1367 38.1833 56.8367 39.45C56.5367 40.75 56.5367 41.9667 56.8367 43.1C57.1701 44.2333 57.7201 45.25 58.4867 46.15C59.2534 47.0833 60.3034 47.8167 61.6367 48.35C63.0034 48.8833 64.5367 49.15 66.2367 49.15ZM87.2797 5.35C86.6797 5.91666 85.963 6.2 85.1297 6.2C84.2964 6.2 83.5797 5.91666 82.9797 5.35C82.3797 4.75 82.0797 4.03333 82.0797 3.2C82.0797 2.33333 82.3797 1.61666 82.9797 1.05C83.5797 0.449999 84.2964 0.149999 85.1297 0.149999C85.963 0.149999 86.6797 0.449999 87.2797 1.05C87.8797 1.61666 88.1797 2.33333 88.1797 3.2C88.1797 4.03333 87.8797 4.75 87.2797 5.35ZM87.6297 22.95C87.6297 30.85 89.0464 34.8 91.8797 34.8V35H78.3797V34.8C81.213 34.8 82.6297 30.85 82.6297 22.95V19.35C82.6297 18.4833 82.613 17.7167 82.5797 17.05C82.5464 16.3833 82.4797 15.6667 82.3797 14.9C82.2797 14.1333 82.1297 13.4833 81.9297 12.95C81.7297 12.4167 81.4797 11.9167 81.1797 11.45C80.8797 10.9833 80.4964 10.6333 80.0297 10.4C79.563 10.1667 79.013 10.05 78.3797 10.05V9.85C79.0464 9.85 80.3964 9.58333 82.4297 9.05C84.463 8.48333 86.1297 7.9 87.4297 7.3H87.6297V22.95ZM117.69 22.95C117.69 30.85 119.09 34.8 121.89 34.8V35H108.39V34.8C111.223 34.8 112.64 30.85 112.64 22.95V14C112.64 12.4 112.523 11.1333 112.29 10.2C112.09 9.23333 111.707 8.51666 111.14 8.05C110.607 7.55 109.873 7.3 108.94 7.3C107.44 7.3 105.923 8.06667 104.39 9.6C102.857 11.1333 101.99 12.7167 101.79 14.35V22.95C101.79 30.85 103.207 34.8 106.04 34.8V35H92.5398V34.8C95.3732 34.8 96.7898 30.85 96.7898 22.95V19.35C96.7898 18.4833 96.7732 17.7167 96.7398 17.05C96.7065 16.3833 96.6398 15.6667 96.5398 14.9C96.4398 14.1333 96.2898 13.4833 96.0898 12.95C95.8898 12.4167 95.6398 11.9167 95.3398 11.45C95.0398 10.9833 94.6565 10.6333 94.1898 10.4C93.7232 10.1667 93.1732 10.05 92.5398 10.05V9.85C93.2065 9.85 94.5565 9.58333 96.5898 9.05C98.6232 8.48333 100.29 7.9 101.59 7.3H101.79V12.65C102.19 11.65 102.79 10.7 103.59 9.8C104.39 8.86667 105.29 8.11667 106.29 7.55C107.323 6.98333 108.34 6.7 109.34 6.7C111.973 6.7 114.023 7.35 115.49 8.65C116.957 9.91667 117.69 11.7 117.69 14V22.95Z" fill="#3F4999"/>
</svg>
