<svg width="611" height="611" viewBox="0 0 611 611" fill="none" xmlns="http://www.w3.org/2000/svg">
<path d="M610.294 252.815C610.433 269.169 610.66 285.523 610.66 301.877C610.66 362.664 610.922 423.451 610.433 484.237C610.433 493.568 611.654 502.968 610.259 512.298C605.028 513.108 601.645 509.464 597.809 507.14C552.648 479.713 507.732 451.881 461.368 423.451C462.501 427.183 463.46 429.735 464.297 432.253C482.257 487.547 501.123 542.524 519.432 597.731C520.774 601.762 523.337 605.741 521.437 610.353L511.585 610.652C511.143 610.329 510.724 609.976 510.33 609.596C509.307 608.512 508.48 607.254 507.888 605.881C507.888 607.466 508.9 609.121 507.575 610.599L408.988 610.705C408.223 610.354 407.517 609.885 406.895 609.314C404.036 605.793 403.949 608.504 403.617 610.758L391.795 610.599C388.081 608.487 386.146 604.825 383.879 601.445C360.932 567.064 338.997 531.98 315.876 497.669C314.132 495.046 312.79 492.054 309.756 489.783C306.757 491.349 306.112 494.694 304.804 497.37C288.047 531.68 270.209 565.445 254.551 600.301C252.808 604.227 251.343 608.557 247.071 610.705H236.836C235.406 604.42 233.906 611.814 232.459 610.705H107.682C105.939 603.787 104.352 610.282 102.678 610.705L92.4428 610.529C89.8099 606.603 92.4428 603.223 93.7506 599.861C114.675 544.795 134.796 489.466 155.459 434.383C155.874 433.671 156.126 432.876 156.199 432.054C156.271 431.232 156.161 430.404 155.877 429.63C148.153 432.763 141.667 438.044 134.796 442.463C95.3373 467.778 55.8433 493.198 16.6632 519.146C13.4548 521.276 10.6301 524.938 5.90474 523.424C5.66063 519.903 5.22471 516.47 5.22471 512.985C5.22471 428.591 5.22471 344.197 5.22471 259.803C5.22471 257.462 5.46882 255.138 5.59088 252.762C9.2177 249.241 13.7687 250.597 17.9883 250.438C26.2707 250.121 34.6055 250.825 42.6089 250.033C42.8772 249.568 43.0258 249.042 43.0411 248.504C43.0563 247.966 42.9377 247.432 42.6961 246.953C30.9089 223.944 20.1505 200.355 8.78179 177.117C8.01759 175.222 6.90536 173.49 5.5037 172.012C5.74781 141.716 2.01637 111.137 7.36942 81.2104C13.5943 46.5128 34.0998 21.9199 66.4622 7.83671C69.2347 12.9419 65.1196 16.093 62.9749 19.4906C48.0666 42.3758 36.3666 66.6694 31.5889 93.8325C29.4093 106.155 27.439 118.566 29.078 129.657C31.7982 117.985 37.1861 105.61 43.0274 93.5156C60.464 57.1456 87.1595 28.9616 120.655 7.15015C125.153 4.11129 130.063 1.74545 135.232 0.126132L285.379 0.0205078C287.53 2.42413 288.884 5.44608 289.25 8.6641C293.662 30.1058 298.248 51.53 303.339 74.3976C310.314 52.6566 316.643 32.1479 323.077 11.5512C324.385 7.3966 325.118 2.97799 328.866 0.07332H504.105C511.219 2.30903 516.781 7.11494 522.326 11.7096C556.293 40.1577 579.501 75.6651 591.148 116.595C590.399 112.017 590.8 105.363 590.869 98.7264C590.724 92.0029 589.888 85.3128 588.376 78.7634C584.889 60.5256 577.53 43.6785 569.283 27.1836C567.853 24.2965 564.453 21.6559 567.086 17.7126C593.241 35.4046 607.957 60.5432 610.085 91.6496C611.933 118.302 610.416 145.183 610.381 171.959C600.617 189.158 593.241 207.572 584.052 225.071C579.902 232.975 575.996 241.002 571.846 249.822C581.872 250.913 590.8 250.121 599.745 250.42C603.302 250.614 607.243 249.734 610.294 252.815Z" fill="#3F4999"/>
<path d="M521.437 610.371L457.061 418.311L610.259 512.299C613.276 562.611 570.608 609.702 521.437 610.371Z" fill="#EB569A"/>
<path d="M0 517.662C48.5436 486.116 93.5066 464.328 142.085 432.816C144.613 431.179 146.845 428.609 151.606 428.838C128.589 491.033 109.345 542.977 86.5207 604.767C53.6705 601.485 26.5169 583.232 11.7358 556.69C5.27073 545.08 1.17259 531.885 0 517.662Z" fill="#EB569A"/>
<path d="M247.088 610.705C248.257 608.065 249.32 605.424 250.576 602.783C269.948 563.491 289.337 524.199 309.25 483.886C313.522 490.311 317.341 496.032 321.107 501.789C343.705 536.269 366.28 570.767 388.831 605.283C389.929 607.044 390.766 608.804 391.725 610.564C356.492 610.705 321.258 610.846 286.024 610.987C273.069 611.057 260.079 610.828 247.088 610.705Z" fill="#EB569A"/>
<path d="M136.659 0.498062C119.867 11.6238 102.954 22.6968 88.3068 36.868C59.9373 64.3655 41.7509 97.9365 30.6612 135.926C26.302 122.653 27.5052 102.478 33.8172 80.0156C40.1293 57.5528 50.3646 37.3257 62.9016 17.9965C64.8719 14.9686 68.3418 12.5568 67.8885 8.20863C75.4908 2.11763 84.802 1.00858 93.7993 0.550874C108.08 -0.2061 122.413 0.44525 136.659 0.498062Z" fill="#EB569A"/>
<path d="M568.512 18.0847C578.05 37.2907 587.414 56.5143 591.947 77.78C595.19 92.9899 594.911 108.182 592.924 123.867C590.918 118.005 589.018 112.125 586.908 106.263C571.407 63.7672 545.583 29.2456 508.652 3.31486C507.547 2.44528 506.504 1.49818 505.531 0.480612C522.973 -1.23177 540.557 1.64921 556.568 8.84253C561.346 10.9726 565.6 13.5428 568.512 18.0847Z" fill="#EB569A"/>
<path d="M329.29 0.445146L304.391 81.0189L302.525 81.1949C296.945 54.2607 291.371 27.3265 285.803 0.392334L329.29 0.445146Z" fill="#EB569A"/>
<path d="M1.37109 163.635C3.88197 163.212 5.06766 164.867 5.99181 166.751C18.5811 192.189 31.1355 217.644 44.3524 244.437H1.45828C1.4234 217.503 1.39434 190.569 1.37109 163.635Z" fill="#EB569A"/>
<path d="M610.34 205.975H567.516C570.41 200.095 572.869 195.008 575.38 189.938C584.865 170.679 594.281 151.385 603.941 132.214C605.353 129.415 605.58 124.961 610.427 125.172C610.393 152.107 610.364 179.041 610.34 205.975Z" fill="#EB569A"/>
<path d="M102.696 610.723C102.742 610.159 102.877 609.606 103.097 609.086C104.84 606.428 104.945 600.178 107.927 601.252C112.931 603.012 106.811 607.361 107.7 610.705L102.696 610.723Z" fill="#E84A38"/>
<path d="M403.582 610.758C403.426 607.783 398.247 604.72 401.194 602.907C404.96 600.6 405.675 606.339 407.75 608.54C408.239 609.208 408.643 609.935 408.953 610.705L403.582 610.758Z" fill="#E84B2C"/>
<path d="M507.575 610.617C507.156 607.343 502.64 602.431 506.807 601.358C510.452 600.425 510.295 607.22 511.585 610.67L507.575 610.617Z" fill="#E94E2C"/>
<path d="M232.477 610.652C232.559 610.07 232.748 609.509 233.035 608.997C235.057 606.656 234.778 600.53 239.016 602.519C241.875 603.892 237.394 607.8 236.853 610.67L232.477 610.652Z" fill="#E94F29"/>
<path d="M313.086 384.264C232.616 382.698 153.942 362.083 83.0098 314.834C79.4353 312.422 75.9479 309.905 72.4606 307.176C62.1032 298.85 60.0457 285.435 67.404 275.19C75.2505 264.293 88.5721 261.67 99.592 269.662C142.608 300.944 190.611 320.08 242.416 330.167C310.541 343.423 377.602 338.283 443.826 318.425C467.074 311.312 489.861 302.746 512.056 292.776C526.406 286.421 539.432 290.646 545.081 303.339C550.73 316.031 545.43 328.653 530.94 335.184C478.072 358.985 423.234 375.674 365.292 381.272C349.285 382.803 333.156 384.053 313.086 384.264Z" fill="#EA569A"/>
<path d="M422.153 251.547C423.094 257.744 423.391 264.134 425.134 270.102C426.878 276.07 425.535 279.203 419.136 279.432C415.492 282.953 410.784 283.076 406.215 283.745C397.358 285.03 388.482 286.28 379.555 287.055C370.017 287.882 367.855 286.174 366.669 276.492C365.623 267.813 365.414 259.046 364.925 250.332C362.711 214.579 359.468 178.895 357.253 143.124C355.998 123.302 354.934 103.532 352.737 83.8158C352.127 78.2881 351.604 72.7428 354.341 67.532C354.847 65.3139 354.847 63.043 357.027 61.3706C366.425 54.1881 375.666 46.8121 385.727 38.9254C389.546 61.8107 393.19 83.4285 397.079 106.525L496.52 17.2725C501.472 32.0951 506.075 46.0551 510.87 59.9447C511.986 63.219 510.644 65.5252 509.127 68.0425C499.868 82.8475 490.469 97.5645 481.524 112.546C478.63 117.387 476.45 117.545 471.498 115.01C446.546 102.247 421.943 103.726 399.781 121.013C377.619 138.3 369.285 161.872 375.806 189.493C382.327 217.114 400.409 234.506 427.75 239.735C454.654 244.893 477.531 235.88 494.009 213.17C497.374 208.54 499.868 207.678 505.081 209.931C514.881 214.156 525.064 217.501 535.159 221.022C537.984 222.008 539.92 222.782 538.647 226.479C532.509 243.097 526.488 259.798 520.582 276.58C520.357 277.42 519.831 278.145 519.106 278.617C518.382 279.088 517.51 279.272 516.659 279.133C513.957 280.259 511.533 279.027 509.144 278.059L421.089 242.604C423.757 244.875 423.425 248.132 422.153 251.547Z" fill="#FFD009"/>
<path d="M85.2766 146.874C101.737 108.303 128.694 82.6718 171.85 81.2987C210.908 80.0664 240.759 98.1634 257.69 133.952C275.127 170.71 268.588 205.337 243.41 236.725C229.757 256.688 209.67 265.49 186.985 268.623C138.859 275.19 93.4893 242.798 82.6262 195.021C78.913 179.048 79.8331 162.333 85.2766 146.874Z" fill="#FFD009"/>
<path d="M440.827 233.521C433.067 233.647 425.359 232.223 418.146 229.331C410.933 226.44 404.357 222.138 398.796 216.672C393.235 211.207 388.799 204.686 385.742 197.484C382.685 190.282 381.069 182.541 380.985 174.706C380.758 141.821 407.14 114.5 439.415 114.253C471.969 114.007 499.031 140.659 499.205 173.315C499.318 181.146 497.894 188.923 495.016 196.196C492.138 203.469 487.862 210.095 482.435 215.692C477.008 221.289 470.538 225.746 463.396 228.806C456.255 231.866 448.585 233.468 440.827 233.521Z" fill="#EB569A"/>
<path d="M292.511 157.647C307.716 157.911 322.938 158.035 337.846 161.45C341.438 166.889 338.038 172.382 337.219 177.487C334.446 194.686 331.273 211.868 327.21 228.82C324.978 238.098 322.397 239.823 313.261 239.383C305.379 239.013 301.857 236.126 300.689 227.764C297.794 207.027 293.923 186.465 290.837 165.763C290.523 162.823 290.052 159.971 292.511 157.647Z" fill="#EA5699"/>
<path d="M292.511 157.647C296.364 182.135 300.27 206.639 304.071 231.144C305.484 240.21 312.703 235.316 317.219 236.76C321.735 238.204 323.531 235.493 324.368 231.056C328.727 207.819 333.365 184.652 337.898 161.45C339.886 160.904 338.23 156.591 341.386 157.647C343.513 158.352 342.519 160.57 342.223 162.189C341.473 166.432 340.636 170.657 339.834 174.882C342.275 185.075 337.829 194.44 336.347 204.14C335.527 209.421 335.109 212.73 342.24 211.322C346.146 210.565 349.442 212.977 351.516 216.603C352.842 218.839 354.341 220.987 355.44 223.346C360.339 233.908 357.637 238.045 350.959 246.988C339.468 262.356 324.594 259.012 309.808 257.744C303.217 257.181 296.661 255.984 290.017 256.248C288.583 256.383 287.142 256.066 285.894 255.341C284.645 254.616 283.649 253.518 283.043 252.199C281.526 249.368 279.67 246.737 277.515 244.365C269.303 235.968 267.053 226.761 273.435 216.339C275.841 210.389 280.079 206.657 286.582 206.833C292.772 207.009 292.964 203.823 292.075 199.052C290.471 190.461 289.477 181.765 288.117 173.139C287.327 169.132 287.41 164.999 288.361 161.027C289.372 159.073 286.617 156.257 289.634 154.989C290.122 154.813 291.517 156.714 292.511 157.647Z" fill="#070104"/>
<path d="M85.2765 146.874C84.9452 159.056 81.5276 170.974 83.2015 183.385C88.2581 220.864 107.805 247.639 142.608 260.842C177.412 274.045 209.704 267.127 237.777 242.041C239.713 240.281 241.561 238.52 243.444 236.672C235.301 253.114 221.3 263.078 205.31 270.12C148.519 294.765 86.0785 259.557 77.2033 197.556C74.7273 180.251 76.3315 162.753 85.2765 146.874Z" fill="#090507"/>
<path d="M538.194 163.386C527.732 155.359 522.344 146.434 523.372 132.826C524.61 116.208 520.199 100.487 506.738 87.3898C519.467 84.2915 531.411 81.5981 543.25 78.4294C548.324 77.0562 547.418 80.6299 548.01 83.2177C554.187 110.274 550.71 138.663 538.194 163.386Z" fill="#FFD00C"/>
<path d="M354.342 67.5322C356.911 102.494 359.468 137.45 362.014 172.4C364.525 207.361 367.123 242.34 369.285 277.337C369.721 284.467 371.848 285.822 378.701 284.608C392.075 282.231 405.64 281.087 419.136 279.432C420.758 284.96 418.16 287.09 413.016 287.724C399.293 289.378 385.571 291.086 371.883 293.005C365.623 293.903 363.723 292.107 363.339 285.329C361.595 255.086 358.997 224.895 356.887 194.669C354.934 166.801 353.191 138.864 351.447 110.926C350.732 100.17 350.209 89.3788 348.867 78.6932C348.099 73.2183 349.355 69.6799 354.342 67.5322Z" fill="#120B0A"/>
<path d="M422.153 251.547C421.316 248.027 420.409 244.506 419.258 239.224L516.712 279.115C515.334 287.319 511.376 287.407 504.401 284.484C477.13 273.147 449.598 262.479 422.153 251.547Z" fill="#0A0707"/>
<path d="M288.361 161.063C290.976 177.329 293.592 193.613 296.364 211.023C286.286 206.023 279.381 209.544 273.435 216.304C277.864 197.785 281.316 178.931 288.361 161.063Z" fill="#E85598"/>
<path d="M521.576 157.823C524.279 160.992 525.779 163.668 528.028 165.252C537.06 171.59 531.725 179.054 529.981 186.201C529.51 188.12 528.237 188.807 526.058 187.962C521.297 185.955 516.433 184.194 511.638 182.311C508.15 180.955 509.58 179.036 510.853 176.871C514.323 170.85 517.636 164.812 521.576 157.823Z" fill="#FDCD19"/>
<path d="M351.447 216.586C345.431 212.167 339.241 212.29 331.691 216.902L339.782 174.882C346.443 188.032 348.483 202.432 351.447 216.586Z" fill="#E75598"/>
<path d="M486.546 534.673C486.652 534.94 486.702 535.227 486.692 535.514C486.682 535.802 486.612 536.084 486.487 536.343C486.362 536.602 486.185 536.831 485.967 537.017C485.749 537.202 485.495 537.339 485.221 537.419C483.704 538.106 482.902 536.786 482.605 535.941C480.077 528.899 477.723 521.857 475.352 514.728C475.255 514.459 475.214 514.173 475.232 513.887C475.249 513.602 475.325 513.323 475.454 513.069C475.584 512.814 475.764 512.589 475.983 512.408C476.202 512.227 476.457 512.094 476.729 512.017C478.264 511.295 479.048 512.686 479.345 513.496C481.856 520.52 484.175 527.614 486.546 534.673Z" fill="#E85033"/>
<path d="M78.1448 462.655C72.9138 470.014 64.8929 473.763 57.5521 478.375C57.1859 478.604 55.8956 478.041 55.512 477.495C54.3612 475.735 55.7038 474.767 56.8895 474.08C63.7421 470.119 69.8275 464.662 78.1448 462.655Z" fill="#E9502E"/>
<path d="M461.856 467.514C467.348 474.168 468.918 482.336 471.394 490.117C471.45 490.644 471.375 491.176 471.174 491.666C470.972 492.155 470.652 492.585 470.243 492.916C469.232 493.497 468.151 492.828 467.715 491.455C465.256 483.621 461.472 476.157 461.856 467.514Z" fill="#E75035"/>
<path d="M157.987 469.116C157.795 478.393 152.913 486.139 150.123 495.997C147.159 489.625 151.135 476.615 157.987 469.116Z" fill="#E9502F"/>
<path d="M134.849 425.915C141.475 419.155 148.92 413.751 158.284 411.568C151.501 418.064 144.352 423.926 134.849 425.915Z" fill="#E9512C"/>
<path d="M118.319 438.766C117.337 439.752 116.294 440.675 115.198 441.53C110.153 444.863 105.079 448.144 99.9757 451.371C98.5982 452.234 97.0464 453.836 95.4945 451.952C93.7508 449.769 96.0176 448.854 97.2382 448.026C102.713 444.329 108.276 440.756 113.855 437.217C115.041 436.46 116.436 435.686 117.726 437.059C118.075 437.341 118.092 438.009 118.319 438.766Z" fill="#E9502E"/>
<path d="M133.158 538.353C131.205 538.265 130.246 536.979 130.786 535.501C133.419 528.195 136.244 520.942 139.121 513.725C139.359 513.407 139.672 513.154 140.031 512.988C140.39 512.822 140.784 512.748 141.178 512.774C141.474 512.788 141.761 512.878 142.013 513.035C142.265 513.192 142.473 513.411 142.618 513.671C142.763 513.932 142.839 514.225 142.841 514.524C142.842 514.823 142.768 515.117 142.626 515.379C139.906 522.667 137.063 529.903 134.221 537.156C134.029 537.719 133.489 538.071 133.158 538.353Z" fill="#E9502F"/>
<path d="M366.844 545.588C366.566 546.383 366.159 547.127 365.64 547.788C365.426 547.985 365.169 548.13 364.891 548.21C364.612 548.291 364.318 548.305 364.033 548.252C363.748 548.2 363.479 548.081 363.246 547.906C363.014 547.731 362.825 547.504 362.694 547.243C358.683 541.187 354.795 535.061 350.854 528.97C350.139 527.843 350.07 526.699 351.273 526.012C351.831 525.695 353.138 525.713 353.4 526.1C357.916 532.508 362.327 538.986 366.844 545.588Z" fill="#EB569A"/>
<path d="M164.735 449.681C164.892 441.161 168.728 433.837 171.605 426.25C171.685 425.968 171.823 425.707 172.012 425.485C172.2 425.262 172.434 425.083 172.697 424.959C172.96 424.836 173.246 424.771 173.536 424.768C173.826 424.766 174.113 424.827 174.378 424.947C174.953 425.229 175.668 426.479 175.476 426.936C172.32 434.682 170.838 443.291 164.735 449.681Z" fill="#EB569A"/>
<path d="M39.1043 489.801C33.2456 496.103 25.4689 499.747 18.407 504.271C17.7968 504.659 16.768 505.081 16.2275 503.902C15.8864 503.423 15.7414 502.83 15.8226 502.247C15.9038 501.663 16.205 501.133 16.6634 500.768C23.4811 496.209 30.3511 491.702 37.2037 487.178L39.1043 489.801Z" fill="#E9502D"/>
<path d="M284.037 510.186C284.228 502.282 288.849 496.297 291.848 489.677C292.336 488.586 293.208 487.671 294.499 488.111C296.382 488.727 296.155 490.487 295.527 491.631C292.023 497.863 290.122 505.257 284.037 510.186Z" fill="#E85033"/>
<path d="M435.282 390.056C438.892 389.897 441.071 392.08 443.408 393.577C445.151 394.738 448.499 395.126 447.959 397.96C447.331 401.199 444.803 398.611 443.146 398.823C440.13 399.245 443.547 403.312 439.99 404.35C438.2 402.473 436.848 400.215 436.033 397.741C435.218 395.268 434.962 392.642 435.282 390.056Z" fill="#E95031"/>
<path d="M341.072 512.351C333.557 504.042 329.32 496.508 324.193 488.058C331.342 490.135 339.381 501.49 341.072 512.351Z" fill="#EB569A"/>
<path d="M552.718 465.824C546.842 462.162 540.983 458.536 535.159 454.839C534.9 454.714 534.672 454.53 534.494 454.302C534.316 454.074 534.192 453.808 534.131 453.524C534.071 453.241 534.075 452.947 534.145 452.665C534.214 452.383 534.346 452.121 534.532 451.899C534.896 451.437 535.425 451.137 536.005 451.065C536.586 450.992 537.171 451.153 537.635 451.512C543.302 454.927 548.934 458.395 554.514 461.968C554.773 462.091 555.002 462.272 555.181 462.496C555.361 462.721 555.488 462.985 555.552 463.266C555.616 463.548 555.615 463.841 555.55 464.122C555.485 464.404 555.357 464.667 555.177 464.891C554.706 465.419 553.712 465.472 552.718 465.824Z" fill="#E85030"/>
<path d="M309.093 466.176C306.007 467.461 306.443 474.098 302.502 471.563C299.521 469.644 303.601 466.035 304.752 463.377C305.589 461.423 306.809 457.004 309.564 459.398C312.772 462.18 316.539 465.859 316.016 470.929C315.859 472.531 313.714 471.985 312.65 470.682C311.587 469.38 310.192 467.619 309.093 466.176Z" fill="#EB569A"/>
<path d="M124.492 556.784C125.015 566.36 120.324 574.177 116.192 582.169C115.459 572.539 120.359 564.758 124.492 556.784Z" fill="#EB569A"/>
<path d="M447.54 423.187C449.144 423.292 449.824 424.648 450.26 425.986C452.388 432.323 454.375 438.714 456.52 445.033C457.043 446.635 457.026 447.92 455.509 448.713C453.992 449.505 453.225 448.008 452.911 447.146C450.365 440.034 447.93 432.881 445.605 425.687C445.326 424.595 445.936 423.398 447.54 423.187Z" fill="#E9512E"/>
<path d="M519.85 442.058C518.908 444.065 517.653 444.188 516.241 443.326C510.609 439.928 504.977 436.531 499.432 432.992C498.647 432.482 497.601 431.39 498.49 430.123C498.617 429.869 498.796 429.645 499.016 429.468C499.236 429.29 499.491 429.163 499.764 429.094C500.038 429.026 500.322 429.018 500.599 429.071C500.876 429.124 501.138 429.236 501.367 429.401C507.191 432.922 513.067 436.443 518.804 440.192C519.414 440.544 519.589 441.53 519.85 442.058Z" fill="#E9502D"/>
<path d="M500.182 582.099C494.637 574.476 492.562 565.674 491.306 556.573C496.715 564 499.805 572.888 500.182 582.099Z" fill="#E9512A"/>
<path d="M181.143 406.322C181.405 401.041 177.795 401.041 174.604 399.984C173.61 399.65 175.04 397.854 175.912 397.379C179.399 395.619 182.067 392.186 186.374 391.781C186.515 391.8 186.651 391.847 186.774 391.919C186.897 391.992 187.004 392.088 187.089 392.203C189.234 394.633 186.897 396.657 186.182 398.559C185.136 401.041 185.171 404.421 181.143 406.322Z" fill="#E85030"/>
<path d="M591.323 485.434C591.323 488.216 589.701 488.392 587.923 487.336C582.535 484.149 577.234 480.787 571.881 477.513C570.451 476.65 569.806 475.488 570.66 473.992C571.515 472.495 572.823 473.305 573.66 473.798C579.065 476.967 584.383 480.276 589.684 483.604C590.319 484.127 590.872 484.744 591.323 485.434Z" fill="#EB569A"/>
<path d="M377.811 562.734C382.24 569.547 386.686 576.342 391.063 583.19C391.238 583.417 391.358 583.681 391.415 583.962C391.472 584.244 391.464 584.534 391.392 584.812C391.319 585.09 391.184 585.347 390.997 585.563C390.81 585.779 390.576 585.949 390.313 586.059C389.916 586.167 389.499 586.172 389.1 586.074C388.7 585.975 388.332 585.777 388.029 585.496C383.408 578.648 377.916 572.258 375.056 564.459L377.811 562.734Z" fill="#E95127"/>
<path d="M483.53 419.173C483.442 421.972 481.42 421.814 480.042 420.934C474.602 417.783 469.284 414.42 464.018 410.97C463.62 410.617 463.314 410.171 463.129 409.67C462.943 409.169 462.883 408.63 462.954 408.1C463.077 407.84 463.257 407.611 463.481 407.432C463.704 407.252 463.965 407.126 464.244 407.063C464.523 407 464.813 407.002 465.091 407.069C465.369 407.136 465.628 407.266 465.849 407.449C471.487 410.852 477.095 414.279 482.675 417.73C483.024 418.029 483.216 418.645 483.53 419.173Z" fill="#E9512A"/>
<path d="M249.233 586.165C245.851 585.743 245.153 584.405 245.624 583.489C248.571 577.24 251.709 571.061 254.883 564.917C254.984 564.646 255.143 564.4 255.35 564.199C255.556 563.997 255.804 563.844 256.076 563.752C256.348 563.659 256.637 563.629 256.923 563.663C257.208 563.697 257.482 563.795 257.725 563.949C257.964 564.102 258.17 564.302 258.329 564.538C258.488 564.773 258.598 565.04 258.652 565.32C258.706 565.6 258.703 565.888 258.642 566.167C258.582 566.446 258.465 566.71 258.3 566.942C255.452 572.633 252.668 578.337 249.948 584.053C249.629 584.726 249.389 585.435 249.233 586.165Z" fill="#E9512C"/>
<path d="M265.414 547.436C266.891 539.394 270.549 531.922 275.981 525.854C275.215 534.117 271.452 541.803 265.414 547.436Z" fill="#E95129"/>
<path d="M305.321 371.156C230.483 369.906 163.408 344.481 95.9455 300.295C92.0746 297.76 88.3954 294.908 84.7686 292.021C82.8157 290.472 81.6997 288.5 83.7747 286.036C85.8497 283.571 87.7851 284.276 89.8775 285.807L91.2899 286.828C162.397 336.806 234.354 364.009 320.264 362.354C385.059 361.104 454.129 339.042 513.379 313.199C514.399 312.655 515.468 312.207 516.57 311.861C520.336 310.946 525.114 305.189 527.694 311.034C530.554 317.459 522.969 317.706 519.377 319.36C496.993 329.535 445.1 349.896 421.52 356.787C376.849 369.938 351.852 371.065 305.321 371.156Z" fill="#13040A"/>
<path d="M175.128 240.844C162.054 240.802 149.285 236.856 138.428 229.503C127.571 222.151 119.111 211.719 114.113 199.523C109.115 187.327 107.802 173.91 110.34 160.962C112.878 148.014 119.154 136.113 128.376 126.758C137.599 117.403 149.357 111.012 162.169 108.388C174.982 105.765 188.277 107.027 200.381 112.015C212.485 117.004 222.857 125.496 230.191 136.422C237.524 147.349 241.493 160.222 241.596 173.421C241.647 182.262 239.964 191.027 236.646 199.209C233.327 207.392 228.438 214.831 222.26 221.098C216.082 227.365 208.737 232.336 200.648 235.725C192.559 239.114 183.885 240.853 175.128 240.844Z" fill="#3F4999"/>
<path d="M290.942 235.088C287.987 234.876 285.047 234.494 282.136 233.943C279.102 233.186 273.819 235.475 273.418 231.391C272.738 224.842 276.295 219.068 281.456 214.913C284.943 212.097 288.867 211.551 292.546 214.473C298.3 219.033 300.026 225.546 299.119 232.377C298.352 238.063 293.4 233.626 290.942 235.088Z" fill="#E95598"/>
<path d="M341.194 239.189C337.288 236.161 329.18 242.71 328.692 233.732C328.256 225.335 336.277 217.061 342.641 217.501C348.762 217.924 354.987 226.462 353.993 234.911C352.842 244.911 345.205 236.249 341.194 239.189Z" fill="#E85598"/>
<path d="M233.645 174.283C233.739 182.11 232.277 189.877 229.346 197.124C226.414 204.37 222.071 210.949 216.576 216.471C211.081 221.993 204.544 226.345 197.352 229.271C190.161 232.197 182.461 233.636 174.709 233.503C141.789 233.503 116.279 207.291 116.349 173.65C116.302 165.823 117.797 158.065 120.747 150.827C123.697 143.59 128.043 137.016 133.532 131.489C139.021 125.962 145.543 121.592 152.72 118.633C159.897 115.674 167.585 114.186 175.337 114.253C208.1 114.412 233.697 140.73 233.645 174.283Z" fill="#EB569A"/>
</svg>
